<svg width="134" height="134" fill="none" xmlns="http://www.w3.org/2000/svg"><circle cx="67.5" cy="67.5" r="60.5" fill="#DFB761"/><circle cx="67" cy="67" r="66.5" fill="#DFB761" fill-opacity=".25" stroke="#FDC500"/><path d="M64.52 66.296c0 5.52-.6 10.248-1.8 14.184-1.152 3.936-3.048 6.96-5.688 9.072-2.592 2.112-6.096 3.168-10.512 3.168-6.192 0-10.728-2.328-13.608-6.984-2.88-4.704-4.32-11.184-4.32-19.44 0-5.568.576-10.32 1.728-14.256 1.152-3.936 3.048-6.96 5.688-9.072 2.64-2.112 6.144-3.168 10.512-3.168 6.144 0 10.68 2.328 13.608 6.984 2.928 4.656 4.392 11.16 4.392 19.512zm-25.128 0c0 5.856.504 10.272 1.512 13.248 1.008 2.928 2.88 4.392 5.616 4.392 2.688 0 4.56-1.464 5.616-4.392 1.056-2.928 1.584-7.344 1.584-13.248 0-5.856-.528-10.272-1.584-13.248-1.056-2.976-2.928-4.464-5.616-4.464-2.736 0-4.608 1.488-5.616 4.464-1.008 2.976-1.512 7.392-1.512 13.248zM104.931 92H69.003v-7.56l12.888-13.032c2.592-2.688 4.68-4.92 6.264-6.696 1.584-1.824 2.736-3.456 3.456-4.896a10.77 10.77 0 001.08-4.752c0-2.064-.576-3.6-1.728-4.608-1.104-1.008-2.616-1.512-4.536-1.512-1.968 0-3.888.456-5.76 1.368-1.872.912-3.84 2.208-5.904 3.888l-5.904-6.984a48.469 48.469 0 014.68-3.6c1.68-1.104 3.6-1.992 5.76-2.664 2.208-.72 4.848-1.08 7.92-1.08 3.36 0 6.24.624 8.64 1.872 2.448 1.2 4.32 2.856 5.616 4.968 1.344 2.064 2.016 4.416 2.016 7.056 0 2.832-.576 5.424-1.728 7.776-1.104 2.352-2.736 4.68-4.896 6.984-2.112 2.304-4.68 4.848-7.704 7.632l-6.624 6.192v.504h22.392V92z" fill="#331954"/></svg>