<svg width="134" height="134" fill="none" xmlns="http://www.w3.org/2000/svg"><circle cx="67.5" cy="67.5" r="60.5" fill="#DFB761"/><circle cx="67" cy="67" r="66.5" fill="#DFB761" fill-opacity=".25" stroke="#FDC500"/><path d="M67.52 64.296c0 5.52-.6 10.248-1.8 14.184-1.152 3.936-3.048 6.96-5.688 9.072-2.592 2.112-6.096 3.168-10.512 3.168-6.192 0-10.728-2.328-13.608-6.984-2.88-4.704-4.32-11.184-4.32-19.44 0-5.568.576-10.32 1.728-14.256 1.152-3.936 3.048-6.96 5.688-9.072 2.64-2.112 6.144-3.168 10.512-3.168 6.144 0 10.68 2.328 13.608 6.984 2.928 4.656 4.392 11.16 4.392 19.512zm-25.128 0c0 5.856.504 10.272 1.512 13.248 1.008 2.928 2.88 4.392 5.616 4.392 2.688 0 4.56-1.464 5.616-4.392 1.056-2.928 1.584-7.344 1.584-13.248 0-5.856-.528-10.272-1.584-13.248-1.056-2.976-2.928-4.464-5.616-4.464-2.736 0-4.608 1.488-5.616 4.464-1.008 2.976-1.512 7.392-1.512 13.248zm66.691 15.048h-6.192V90H92.307V79.344h-21.96v-7.56l22.536-33.192h10.008V70.92h6.192v8.424zM92.307 70.92v-8.712c0-1.104.024-2.448.072-4.032.048-1.584.096-3.048.144-4.392a84.39 84.39 0 01.216-2.736h-.288c-.432.96-.888 1.896-1.368 2.808a26.188 26.188 0 01-1.728 2.808L79.923 70.92h12.384z" fill="#331954"/></svg>