<svg width="134" height="134" fill="none" xmlns="http://www.w3.org/2000/svg"><circle cx="67.5" cy="67.5" r="60.5" fill="#DFB761"/><circle cx="67" cy="67" r="66.5" fill="#DFB761" fill-opacity=".25" stroke="#FDC500"/><path d="M64.52 66.296c0 5.52-.6 10.248-1.8 14.184-1.152 3.936-3.048 6.96-5.688 9.072-2.592 2.112-6.096 3.168-10.512 3.168-6.192 0-10.728-2.328-13.608-6.984-2.88-4.704-4.32-11.184-4.32-19.44 0-5.568.576-10.32 1.728-14.256 1.152-3.936 3.048-6.96 5.688-9.072 2.64-2.112 6.144-3.168 10.512-3.168 6.144 0 10.68 2.328 13.608 6.984 2.928 4.656 4.392 11.16 4.392 19.512zm-25.128 0c0 5.856.504 10.272 1.512 13.248 1.008 2.928 2.88 4.392 5.616 4.392 2.688 0 4.56-1.464 5.616-4.392 1.056-2.928 1.584-7.344 1.584-13.248 0-5.856-.528-10.272-1.584-13.248-1.056-2.976-2.928-4.464-5.616-4.464-2.736 0-4.608 1.488-5.616 4.464-1.008 2.976-1.512 7.392-1.512 13.248zm48.331-7.128c3.12 0 5.904.6 8.352 1.8 2.448 1.2 4.368 2.952 5.76 5.256 1.44 2.304 2.16 5.16 2.16 8.568 0 5.568-1.728 9.96-5.184 13.176-3.456 3.168-8.568 4.752-15.336 4.752-2.688 0-5.232-.24-7.632-.72-2.352-.48-4.416-1.176-6.192-2.088v-9.36c1.776.912 3.912 1.704 6.408 2.376 2.496.624 4.848.936 7.056.936 3.216 0 5.664-.648 7.344-1.944 1.728-1.344 2.592-3.408 2.592-6.192 0-5.184-3.432-7.776-10.296-7.776-1.344 0-2.736.144-4.176.432-1.44.24-2.64.48-3.6.72L70.66 66.8l1.944-26.208h27.864v9.216h-18.36l-.936 10.08c.816-.144 1.68-.288 2.592-.432.96-.192 2.28-.288 3.96-.288z" fill="#331954"/></svg>