<svg width="134" height="134" fill="none" xmlns="http://www.w3.org/2000/svg"><circle cx="67.5" cy="67.5" r="60.5" fill="#DFB761"/><circle cx="67" cy="67" r="66.5" fill="#DFB761" fill-opacity=".25" stroke="#FDC500"/><path d="M64.52 69.296c0 5.52-.6 10.248-1.8 14.184-1.152 3.936-3.048 6.96-5.688 9.072-2.592 2.112-6.096 3.168-10.512 3.168-6.192 0-10.728-2.328-13.608-6.984-2.88-4.704-4.32-11.184-4.32-19.44 0-5.568.576-10.32 1.728-14.256 1.152-3.936 3.048-6.96 5.688-9.072 2.64-2.112 6.144-3.168 10.512-3.168 6.144 0 10.68 2.328 13.608 6.984 2.928 4.656 4.392 11.16 4.392 19.512zm-25.128 0c0 5.856.504 10.272 1.512 13.248 1.008 2.928 2.88 4.392 5.616 4.392 2.688 0 4.56-1.464 5.616-4.392 1.056-2.928 1.584-7.344 1.584-13.248 0-5.856-.528-10.272-1.584-13.248-1.056-2.976-2.928-4.464-5.616-4.464-2.736 0-4.608 1.488-5.616 4.464-1.008 2.976-1.512 7.392-1.512 13.248zm29.251 3.888c0-2.976.216-5.904.648-8.784.432-2.88 1.176-5.592 2.232-8.136a22.099 22.099 0 014.536-6.84c1.968-2.016 4.44-3.576 7.416-4.68 3.024-1.152 6.672-1.728 10.944-1.728a50.3 50.3 0 013.528.144c1.344.048 2.472.168 3.384.36v8.712c-.912-.24-1.92-.408-3.024-.504a23.421 23.421 0 00-3.168-.216c-4.272 0-7.584.672-9.936 2.016-2.304 1.344-3.936 3.24-4.896 5.688-.96 2.4-1.512 5.184-1.656 8.352h.432c.96-1.68 2.328-3.096 4.104-4.248 1.824-1.152 4.176-1.728 7.056-1.728 4.512 0 8.088 1.416 10.728 4.248 2.64 2.832 3.96 6.84 3.96 12.024 0 5.568-1.584 9.936-4.752 13.104-3.12 3.168-7.368 4.752-12.744 4.752-3.504 0-6.672-.792-9.504-2.376-2.832-1.632-5.088-4.104-6.768-7.416-1.68-3.36-2.52-7.608-2.52-12.744zM87.22 87.008c2.112 0 3.84-.72 5.184-2.16 1.344-1.488 2.016-3.768 2.016-6.84 0-2.496-.576-4.464-1.728-5.904-1.152-1.44-2.904-2.16-5.256-2.16-1.584 0-2.976.36-4.176 1.08-1.2.672-2.136 1.56-2.808 2.664-.672 1.104-1.008 2.232-1.008 3.384 0 1.584.288 3.144.864 4.68.576 1.488 1.44 2.736 2.592 3.744 1.2 1.008 2.64 1.512 4.32 1.512z" fill="#331954"/></svg>