<?xml version="1.0" encoding="utf-8"?><svg xmlns="http://www.w3.org/2000/svg" xmlns:xlink="http://www.w3.org/1999/xlink"><symbol viewBox="0 0 28 24" id="favicon" xmlns="http://www.w3.org/2000/svg"><path d="M25.415 10.625c-.805.553-1.515 1.251-2.282 1.657-.306-.47-.862-.747-1.514-.747-1.093 0-1.515.812-1.112 1.706.21.113.537.178.882.194.057.228.096.455.096.666 0 1.462-1.227 2.664-2.205 2.664-.671 0-1.246-.552-1.246-1.982 0-1.591 1.13-3.768 2.875-3.768.46 0 .863.065 1.227.179.288.097.614-.081.652-.455-.575-.73-1.342-.958-2.3-.958-2.895 0-4.908 3.07-4.908 5.522 0 1.527.843 2.875 2.818 2.875 2.3 0 5.004-2.452 5.004-4.938 0-.048 0-.113-.02-.178.787-.422 1.534-1.186 2.033-1.543.268-.195.364-.634 0-.894z"/><path fill-rule="evenodd" clip-rule="evenodd" d="M20.85 4.588c-4.18 3.348-6.258 5.92-7.093 10.901-.314 1.88-.226 3.79-.583 5.662-.498-1.86-.571-3.849-.425-5.748.407-5.27 2.621-8.281 6.823-11.942.366-.3.95-.29 1.305.02.354.31.343.806-.024 1.106h-.002zm-10.477 8.499C7.15 14.26 4.17 9.299 12.293 5.725c1.575-.693 2.153-.86 3.852-1.198C13.66 6.072 9.817 7.57 8.794 10.27c-.198.523-.188 1.474.68 1.47l.005-.005c-.022-.003-.01-.002-.034 0 .44-.217 1.005-.091 1.26.283.256.372.108.85-.333 1.068z"/><path d="M7.214 8.734c.663 0 1.201-.556 1.201-1.242 0-.686-.538-1.242-1.201-1.242s-1.201.556-1.201 1.242c0 .686.538 1.242 1.201 1.242z"/><path fill-rule="evenodd" clip-rule="evenodd" d="M10.652 7.39s-.205.794.964 1.367c1.168.573 1.901.738 1.901.738l-1.363 1.832s-.761-.024-2.2-.534c-1.437-.511-1.492-.653-1.492-.653l2.19-2.75z"/><path fill-rule="evenodd" clip-rule="evenodd" d="M11.04 14.957l-.21-.512s.452-.376.507-.879c.056-.502-.247-.95.316-1.854.563-.905 1.266-1.843 2.476-2.617-.426.502-.537.594-1.047 1.205-.511.612-1.716 2.087-1.457 2.936.26.848-.297 1.44-.584 1.722z"/><path fill-rule="evenodd" clip-rule="evenodd" d="M12.258 14.45l-.255-.315s.332-.511.337-1.017c.004-.505-.423-.891.22-1.835.645-.945.758-1.065 1.601-1.86-.337.569-.594.976-.807 1.328-.213.352-.93 1.375-.68 1.998.252.623-.158 1.4-.416 1.703v-.001z"/><path d="M20.17 19.146c-.692 2.346-4.697 4.27-8.383 4.27-3.577 0-6.438-.849-8.579-2.543C1.068 19.179 0 16.915 0 14.091c0-3.733 1.702-7.016 5.1-9.844C8.503 1.414 12.448 0 16.93 0c3.077 0 5.662.827 7.743 2.475 2.086 1.649 2.683 2.868 2.683 5.305 0 2.076-.866 2.72-2.065 3.69-1.529 1.239-1.336.488-1.057.186 1.066-1.155 1.77-1.567 1.94-3.035.237-2.038-.883-3.76-2.644-5.142-1.762-1.382-3.945-2.075-6.547-2.075-3.994 0-7.429 1.225-10.317 3.682-2.883 2.456-4.325 5.376-4.325 8.764 0 2.457.873 4.449 2.618 5.964 1.75 1.52 4.026 2.277 6.828 2.277 2.818 0 5.61-.982 8.383-2.947v.002z"/></symbol><symbol viewBox="0 0 35 31" id="icon_phone" xmlns="http://www.w3.org/2000/svg"><g clip-path="url(#bclip0)" fill-rule="evenodd" clip-rule="evenodd"><path d="M20.782 26.166c-.004-.63.533-1.15 1.06-1.15.275 0 .375-.015.643.12.124.062.204.134.296.224.689.688.22 1.973-.822 1.977a1.171 1.171 0 01-1.177-1.171zM8.577 7.922c0-.31.048-.41.444-.568l8.192-3.32c.313-.145 1.094-.486 1.373-.486.234 0 .365.166.434.331l3.362 8.317c.272.672 3.573 8.769 3.573 8.872 0 .544-.307.527-.854.761l-7.2 2.918a4.724 4.724 0 00-.21.09l-1.108.447c-.582.234-.864.386-1.13-.28l-2.116-5.238c-.062-.151-.127-.285-.182-.447l-.355-.875c-.062-.148-.124-.293-.172-.43l-2.653-6.565c-.038-.086-.049-.127-.083-.217l-.358-.875c-.034-.1-.052-.124-.086-.213l-.533-1.326c-.062-.155-.33-.755-.33-.9l-.008.004zM5.462 6.676c0 .568.183.857.403 1.405.169.423.324.806.496 1.23.334.833.66 1.621.994 2.451l6.43 15.891c.144.355.788 2.07 1.039 2.404.42.562 1.043.817 1.766.737.254-.027.45-.12.667-.206l3.68-1.492c1.634-.66 3.242-1.319 4.883-1.977.307-.123 2.885-1.153 3.046-1.246.6-.352.981-.906.981-1.695 0-.475-.347-1.188-.526-1.632-.1-.252-.2-.52-.317-.779l-.943-2.338c-.107-.262-.206-.51-.313-.778L22.403 5.449c-.423-1.05-.84-2.063-1.26-3.113-.337-.84-.513-1.591-1.284-1.998-.726-.385-1.36-.2-2.058.118l-.444.182c-3.06 1.216-6.13 2.487-9.186 3.72l-1.105.45c-.096.039-.151.056-.234.094-.151.069-.296.114-.433.193-.469.272-.926.847-.926 1.587l-.01-.006zm28.03 15.354c0 .168.086.474.124.698.255 1.516-.096 2.99-.843 4.25-.757 1.271-2.075 2.263-3.497 2.676-.203.059-.385.093-.53.21-.44.359-.179 1.14.351 1.14.454 0 .93-.189 1.353-.372 1.122-.478 1.731-.974 2.554-1.79.086-.087.113-.138.189-.22.213-.232.327-.4.499-.648.557-.806.84-1.502 1.112-2.463a6.28 6.28 0 00.2-1.405l-.004-.75a7.12 7.12 0 00-.155-1.234c-.041-.179-.086-.358-.182-.475-.38-.458-1.167-.165-1.167.379l-.004.003zM0 7.098v.035l.003.785c.014.238.052.455.138.575.317.434.895.379 1.126-.055.22-.413-.307-1.75.667-3.696.19-.378.365-.664.613-.998.34-.458.437-.507.767-.844.744-.758 2.2-1.447 3.253-1.56.258-.028.461-.045.63-.166C7.66.84 7.52 0 6.787 0h-.014C5.944.007 4.77.427 4.082.771a6.763 6.763 0 00-1.425.951c-.227.193-.465.393-.657.627-.43.523-.63.696-1.023 1.38l-.42.862C.259 5.356 0 6.23.004 7.09L0 7.098z"/><path d="M2.595 7.53c0 .461.059 1.091.685 1.091.351 0 .63-.258.654-.575.034-.492-.052-.568.052-1.202.14-.878.73-1.784 1.442-2.3.595-.434 1.084-.586 1.82-.696a.698.698 0 00.424-.207c.444-.485-.014-1.102-.365-1.098-.726.003-1.483.248-2.01.533-.262.142-.489.29-.712.462a2.765 2.765 0 00-.324.279c-.127.124-.145.103-.279.265-.427.52-.667.751-.963 1.467-.241.579-.286.803-.379 1.423-.02.14-.041.423-.041.558h-.004zm28.36 15.026c0 .382.11.475.114 1.285.003.699-.327 1.512-.71 2.018-.202.272-.206.255-.436.489-.3.303-.672.558-1.095.737-.544.23-1.053.159-1.05.889 0 .327.33.599.658.599.35 0 1.215-.41 1.531-.6.245-.147.41-.278.623-.444l.785-.826c.08-.107.148-.214.22-.324.076-.114.128-.217.203-.344.083-.138.11-.231.18-.369.426-.875.498-2.06.306-3.024-.055-.268-.117-.44-.314-.561-.52-.32-1.015.082-1.015.475z"/></g><defs><clipPath id="bclip0"><path d="M0 0h35v31H0z"/></clipPath></defs></symbol><symbol viewBox="0 0 305 71" id="logotype_white" xmlns="http://www.w3.org/2000/svg"><g clip-path="url(#cclip0)"><path clip-rule="evenodd" d="M194.249 14.884c-9.948 10.7-14.311 16.978-16.819 32.084-.943 5.68-.583 11.49-1.498 17.165-1.281-5.638-1.47-11.67-1.094-17.427 1.045-15.978 5.923-24.27 16.712-35.37 1.368-1.335 3.249-1.717 4.157-.776.909.942.303 2.596-1.458 4.324zm-33.623 4.066c1.704 0 3.085 1.685 3.085 3.765s-1.381 3.764-3.085 3.764c-1.703 0-3.085-1.685-3.085-3.764 0-2.08 1.382-3.765 3.085-3.765zm8.934 4.853c.239.823.855 1.87 2.37 2.75 3.001 1.74 4.883 2.24 4.883 2.24l-.176.279a18.866 18.866 0 011.749-1.494c-1.097 1.524-1.381 1.8-2.692 3.654-1.311 1.853-4.409 6.326-3.741 8.9.666 2.573-.76 4.364-1.499 5.223l-.54-1.551s1.16-1.14 1.302-2.667c.143-1.526-.635-2.882.809-5.623.216-.412.442-.825.677-1.24-.84-.131-2.542-.502-5.036-1.55-1.557-.653-2.483-1.107-3.033-1.414-.454 1.613-.357 4.302 1.797 4.288l.012-.013c-.055-.008-.026-.008-.089.001a2.37 2.37 0 012.383 4.096c-8.273 3.562-15.928-11.484 4.932-22.32 4.043-2.1 5.527-2.608 9.89-3.634-4.174 3.066-9.844 6.07-13.999 10.075h.001zm4.018 20.016l-.653-.959s.853-1.549.866-3.082c.013-1.531-1.086-2.702.568-5.565 1.654-2.865 1.942-3.227 4.109-5.641-.866 1.725-1.527 2.961-2.074 4.028-.548 1.068-2.39 4.169-1.744 6.057.646 1.888-.407 4.244-1.07 5.161l-.002.001z"/><path fill-rule="evenodd" clip-rule="evenodd" d="M194.249 14.884c-9.948 10.7-14.311 16.978-16.819 32.084-.943 5.68-.583 11.49-1.498 17.165-1.281-5.638-1.47-11.67-1.094-17.427 1.045-15.978 5.923-24.27 16.712-35.37 1.368-1.335 3.249-1.717 4.157-.776.909.942.303 2.596-1.458 4.324zm-33.623 4.066c1.704 0 3.085 1.685 3.085 3.765s-1.381 3.764-3.085 3.764c-1.703 0-3.085-1.685-3.085-3.764 0-2.08 1.382-3.765 3.085-3.765zm8.934 4.853c.239.823.855 1.87 2.37 2.75 3.001 1.74 4.883 2.24 4.883 2.24l-.176.279a18.866 18.866 0 011.749-1.494c-1.097 1.524-1.381 1.8-2.692 3.654-1.311 1.853-4.409 6.326-3.741 8.9.666 2.573-.76 4.364-1.499 5.223l-.54-1.551s1.16-1.14 1.302-2.667c.143-1.526-.635-2.882.809-5.623.216-.412.442-.825.677-1.24-.84-.131-2.542-.502-5.036-1.55-1.557-.653-2.483-1.107-3.033-1.414-.454 1.613-.357 4.302 1.797 4.288l.012-.013c-.055-.008-.026-.008-.089.001a2.37 2.37 0 012.383 4.096c-8.273 3.562-15.928-11.484 4.932-22.32 4.043-2.1 5.527-2.608 9.89-3.634-4.174 3.066-9.844 6.07-13.999 10.075h.001zm4.018 20.016l-.653-.959s.853-1.549.866-3.082c.013-1.531-1.086-2.702.568-5.565 1.654-2.865 1.942-3.227 4.109-5.641-.866 1.725-1.527 2.961-2.074 4.028-.548 1.068-2.39 4.169-1.744 6.057.646 1.888-.407 4.244-1.07 5.161l-.002.001z"/><path d="M193.899 58.053C192.122 65.165 181.836 71 172.371 71c-9.185 0-16.533-2.575-22.03-7.713-5.497-5.137-8.238-12-8.238-20.563 0-11.318 4.369-21.273 13.095-29.848 8.74-8.59 18.87-12.877 30.38-12.877 7.904 0 14.539 2.51 19.885 7.504 5.355 5.002 6.889 8.697 6.889 16.088 0 2.95-.49 4.947-1.325 6.54a6.388 6.388 0 011.851-.279c1.773 0 2.805.838 2.362 2.709l-.492 2.215c2.067-2.954 5.218-4.925 8.073-4.925 2.609 0 4.48 2.068 3.348 7.24l-2.412 11.326c-.295 1.429.345 2.019 1.33 2.019 1.822 0 3.938-1.232 5.169-2.462.542.246.837.69.837 1.182 0 .345-.147.74-.443 1.084-2.313 2.61-5.611 4.876-8.911 4.876-2.461 0-5.071-1.232-3.839-6.993l2.066-9.8c.444-2.067-.246-2.905-1.329-2.905-1.33 0-3.298 1.232-4.382 2.56l-3.002 14.035c-.493 2.265-2.363 3.103-4.136 3.103-.886 0-1.723-.246-2.313-.64l4.037-18.911c.197-.789-.049-1.232-.493-1.232-.246 0-.541.197-.984.591a.95.95 0 01-.239-.214c.276-.264.546-.52.806-.774a1.83 1.83 0 01-.567.988c-1.281 1.084-3.2 3.398-5.219 4.679.049.197.049.394.049.542 0 7.535-6.941 14.97-12.848 14.97-5.071 0-7.236-4.087-7.236-8.716 0-7.437 5.169-16.744 12.603-16.744 2.461 0 4.431.69 5.907 2.906-.099 1.133-.936 1.675-1.675 1.38a8.977 8.977 0 00-3.15-.543c-4.48 0-7.384 6.599-7.384 11.426 0 4.334 1.477 6.007 3.199 6.007 2.51 0 5.661-3.644 5.661-8.077 0-.64-.099-1.33-.246-2.018-.887-.05-1.723-.246-2.264-.591-1.035-2.708.049-5.172 2.855-5.172 1.674 0 3.101.838 3.889 2.265 1.41-.88 2.744-2.218 4.148-3.521 1.997-2.397 3.301-3.886 3.664-7.575.607-6.179-2.268-11.403-6.791-15.593-4.522-4.19-10.131-6.293-16.811-6.293-10.256 0-19.079 3.717-26.496 11.165-7.403 7.447-11.105 16.302-11.105 26.576 0 7.447 2.24 13.49 6.722 18.083 4.494 4.608 10.34 6.905 17.535 6.905 7.236 0 14.403-2.98 21.528-8.938v.006zm53.586-10.963c.345-.936-.246-2.019-1.182-1.87-.935 2.707-4.874 5.121-7.581 5.121-1.722 0-3.002-.985-2.658-3.545.05-.591.148-1.232.247-1.823 6.35-9.701 9.549-17.58 9.549-21.422 0-2.56-1.625-3.99-3.938-3.99-6.449 0-9.747 10.44-12.012 28.268-.64 5.171 1.968 7.288 5.416 7.288 4.529 0 10.436-3.545 12.159-8.027zm-5.218-24.278c.541 0 .837.246.837 1.084 0 1.675-1.822 8.668-6.153 16.694 1.674-10.391 3.692-17.778 5.317-17.778h-.001zm7.679.69c-.295 1.92 1.133 3.447 3.052 3.447 1.921 0 3.545-1.527 3.84-3.448.197-1.92-1.231-3.447-3.15-3.447-1.92 0-3.545 1.528-3.742 3.448zm-4.48 25.756c-.935 4.481 1.921 5.86 4.382 5.86 3.298 0 6.596-2.266 8.911-4.877.295-.344.443-.739.443-1.083 0-.493-.296-.937-.837-1.183-1.232 1.232-3.348 2.462-5.17 2.462-1.28 0-2.067-.887-1.477-3.644l3.002-14.232c.394-1.871-.591-2.709-2.362-2.709-2.067 0-3.84 1.035-5.513 2.364-.985.788-.64 2.314 0 2.708.443-.394.739-.591.985-.591.443 0 .64.443.493 1.232l-2.855 13.69-.002.002zm13.587-14.331c.443-.394.738-.591.985-.591.443 0 .689.443.492 1.231l-4.037 18.911c.591.394 1.428.64 2.313.64 1.772 0 3.643-.837 4.136-3.102l3.002-14.035c1.084-1.33 3.052-2.56 4.382-2.56 1.083 0 1.773.838 1.33 2.905l-2.067 9.8c-1.232 5.761 1.379 6.993 3.839 6.993 3.299 0 6.597-2.265 8.911-4.876.296-.345.443-.74.443-1.084 0-.493-.295-.936-.837-1.182-1.231 1.231-3.347 2.462-5.169 2.462-.985 0-1.625-.592-1.33-2.019l2.412-11.327c1.132-5.171-.739-7.239-3.348-7.239-2.854 0-6.005 1.97-8.073 4.925l.492-2.215c.444-1.871-.591-2.709-2.362-2.709-2.067 0-3.84 1.035-5.513 2.364-.985.788-.64 2.314 0 2.708h-.001zm40.317-.542c0-2.215-1.133-4.728-5.611-4.728-8.123 0-12.357 10.243-12.357 16.645 0 6.056 3.741 8.815 8.369 8.815 4.776 0 10.486-2.954 13.882-7.929.542-.886.049-1.92-1.231-1.675-2.116 2.807-6.646 5.32-10.19 5.32-2.264 0-4.086-.986-4.578-3.645 9.5-5.27 11.716-8.618 11.716-12.805v.002zm-5.268-.887c.837 0 1.428.788 1.428 1.92 0 3.201-3.249 6.648-8.024 9.652.148-3.447 1.722-11.573 6.596-11.573v.001z"/><path d="M258.551 68.013h-1.889a1.723 1.723 0 01-1.707-1.944 3.868 3.868 0 01-1.052-.323 3.344 3.344 0 01-1.441-1.336 3.473 3.473 0 01-.358-.912 4.105 4.105 0 01-.106-.928c0-.324.041-.681.122-1.073l.003-.013h-.003l.445-2.065a1.718 1.718 0 011.683-1.363v-.003h1.893c.353 0 .681.106.954.288a1.72 1.72 0 01.949-.285v-.003h1.889c.232 0 .453.046.656.129a1.71 1.71 0 01.648-.128v-.003h1.865c.396 0 .761.134 1.052.358a2.165 2.165 0 01.811-.31c.182-.031.345-.047.489-.047h1.776c.232 0 .455.046.656.129a1.71 1.71 0 01.648-.128v-.003h1.889c.451 0 .863.174 1.171.46a2.64 2.64 0 01.733-.356c.232-.07.451-.105.655-.105h1.87c.681 0 1.269.395 1.55.969l.117-.181a1.72 1.72 0 011.44-.783v-.005h1.681c.87 0 1.587.643 1.705 1.479l.08.352.098-.465a1.72 1.72 0 011.684-1.364v-.002h1.888c.41 0 .785.143 1.082.382.3-.24.678-.38 1.076-.38v-.002h1.889c.204 0 .401.036.583.101.181-.064.375-.099.573-.099v-.002h1.893c.354 0 .681.105.955.288.276-.183.604-.286.948-.286v-.002h1.889c.232 0 .454.046.656.129a1.71 1.71 0 01.648-.128v-.003h1.865c.396 0 .761.134 1.052.358a2.147 2.147 0 01.811-.31c.183-.032.345-.048.49-.048h1.776a1.723 1.723 0 011.659 2.185l-1.358 6.41a1.72 1.72 0 01-1.683 1.363v.003h-1.87c-.461 0-.879-.181-1.189-.476a2.157 2.157 0 01-1.026.447 2.518 2.518 0 01-.379.029h-1.53c-.232 0-.453-.047-.656-.13a1.717 1.717 0 01-.648.128v.003h-1.888a1.723 1.723 0 01-1.708-1.945 3.872 3.872 0 01-1.052-.323 3.223 3.223 0 01-.284-.153l-.224 1.056a1.718 1.718 0 01-1.683 1.364v.002h-1.889c-.41 0-.786-.143-1.082-.382-.3.24-.678.38-1.076.38v.002h-1.889c-.127 0-.253-.014-.374-.04a1.873 1.873 0 01-.346.036v.006h-1.479c-.195 0-.396-.028-.601-.083a2.41 2.41 0 01-.988-.527 2.587 2.587 0 01-.369-.399l-.048-.066h-.23a3.334 3.334 0 01-.707.614 2.06 2.06 0 01-.159.091 2.73 2.73 0 01-.497.23c-.275.094-.547.14-.815.14h-3.178a2.44 2.44 0 01-.683-.096 2.25 2.25 0 01-.68-.326 2.264 2.264 0 01-.283-.229 1.725 1.725 0 01-1.344.647v.002h-1.889a1.74 1.74 0 01-.656-.129 1.712 1.712 0 01-.647.128v.003h-1.87c-.461 0-.879-.181-1.189-.475a2.172 2.172 0 01-.916.429 2.521 2.521 0 01-.489.046h-1.53c-.232 0-.453-.046-.656-.129a1.717 1.717 0 01-.648.127v.003h-.004zm-56.893 0h-1.479a2.431 2.431 0 01-1.589-.61 2.547 2.547 0 01-.369-.398l-.048-.067h-.23a3.36 3.36 0 01-.707.614 1.877 1.877 0 01-.16.092 2.753 2.753 0 01-.496.229c-.276.094-.548.14-.816.14h-1.479a1.723 1.723 0 01-1.364-2.773l4.151-6.397a1.72 1.72 0 011.44-.783v-.006h1.681c.869 0 1.586.644 1.705 1.48l.08.352.098-.465a1.72 1.72 0 011.683-1.364v-.003h1.889c.41 0 .785.144 1.082.383.3-.24.678-.38 1.076-.38v-.003h1.889c.856 0 1.566.625 1.701 1.444l.425-.655c.329-.506.88-.781 1.44-.783v-.006h1.682c.408 0 .785.142 1.08.381.3-.239.677-.378 1.074-.376v-.005h5.166c.491 0 .935.206 1.247.535l.009-.004a5.74 5.74 0 012.597-.62c.832 0 1.582.173 2.248.518.351.183.666.403.945.664.256.24.479.514.667.82l.177-.64a1.72 1.72 0 011.656-1.267v-.007h4.842c.231 0 .454.046.656.129.203-.083.421-.128.647-.128v-.003h1.866c.395 0 .76.134 1.051.358.073-.046.147-.087.221-.123.178-.085.375-.148.591-.187.182-.031.344-.047.489-.047h1.776c.55 0 1.04.257 1.356.659a4.49 4.49 0 01.327-.181c.054-.028.109-.051.165-.071a4.47 4.47 0 01.811-.279 4.44 4.44 0 011.029-.127h2.684a1.723 1.723 0 011.66 2.185l-1.359 6.409a1.72 1.72 0 01-1.683 1.363v.003h-1.889c-.304 0-.591-.08-.839-.218a2.23 2.23 0 01-.591.176c-.155.028-.301.04-.437.04h-1.955c-.116 0-.229-.01-.338-.032-.106.02-.213.03-.323.03v.003h-1.87c-.46 0-.879-.181-1.189-.475a2.121 2.121 0 01-.481.288c-.143.064-.288.11-.434.14a2.545 2.545 0 01-.49.046h-1.53a1.74 1.74 0 01-.656-.128 1.708 1.708 0 01-.647.127v.003h-1.889c-.508 0-.965-.22-1.28-.57a3.949 3.949 0 01-1.101.503 3.739 3.739 0 01-1.018.143 5.76 5.76 0 01-1.614-.246l-.006-.002v.001a4.403 4.403 0 01-.494-.186 1.72 1.72 0 01-.407-.254 5.817 5.817 0 01-2.771.701 5.28 5.28 0 01-1.15-.127 4.51 4.51 0 01-1.093-.391 4.119 4.119 0 01-.943-.666 3.917 3.917 0 01-.51-.584l-.067.31a1.718 1.718 0 01-1.683 1.364v.003h-1.888a1.72 1.72 0 01-.484-.07 1.676 1.676 0 01-.464.064v.006h-1.479c-.195 0-.396-.028-.601-.083a2.41 2.41 0 01-.988-.527 2.587 2.587 0 01-.369-.399l-.048-.066h-.23a3.334 3.334 0 01-.707.614 2.06 2.06 0 01-.159.091 2.73 2.73 0 01-.497.23c-.275.094-.548.14-.815.14h-1.479c-.126 0-.249-.013-.367-.04a1.669 1.669 0 01-.352.037v.003h-1.889c-.409 0-.786-.144-1.082-.383a1.72 1.72 0 01-1.076.38v.003h-1.888a1.77 1.77 0 01-.374-.04 1.883 1.883 0 01-.346.036v.005h-.003z"/><path d="M201.659 66.29h-1.479a.656.656 0 01-.32-.085.824.824 0 01-.263-.229.718.718 0 01-.139-.306l-.095-.455h-2.324l-.289.455a1.413 1.413 0 01-.441.436 1.01 1.01 0 01-.544.184h-1.478l4.226-6.513h1.682l1.466 6.513h-.002zm-2.572-2.37l-.212-1.007a1.428 1.428 0 01-.023-.297 4.502 4.502 0 01.075-.787h-.017c-.033.174-.09.368-.172.58a3 3 0 01-.242.504l-.639 1.007h1.23zm10.607-4.143l-1.38 6.513h-1.889l.508-2.393h-2.158l-.508 2.393h-1.889l1.38-6.513h1.889l-.507 2.388h2.158l.507-2.388h1.889zm6.714 6.513h-1.479a.653.653 0 01-.32-.085.838.838 0 01-.264-.229.73.73 0 01-.139-.306l-.094-.455h-2.325l-.288.455a1.406 1.406 0 01-.442.436 1 1 0 01-.543.184h-1.479l4.227-6.513h1.681l1.466 6.513h-.001zm-2.573-2.37l-.211-1.007a1.36 1.36 0 01-.023-.297 4.502 4.502 0 01.075-.787h-.017c-.034.174-.09.368-.173.58a2.852 2.852 0 01-.242.504l-.638 1.007h1.229zm3.26-4.143h5.167l-.365 1.732h-1.637l-1.015 4.781h-1.889l1.016-4.781h-1.642l.365-1.732zm4.924 3.261a4.117 4.117 0 01.803-1.723c.4-.51.888-.909 1.463-1.197a4.027 4.027 0 011.83-.432c.557 0 1.044.109 1.461.325.417.215.739.517.965.905.226.389.339.836.339 1.343 0 .255-.029.515-.086.779a4.107 4.107 0 01-.801 1.72 4.228 4.228 0 01-1.465 1.192 4.09 4.09 0 01-1.84.43c-.555 0-1.04-.107-1.457-.323a2.314 2.314 0 01-.962-.907 2.635 2.635 0 01-.337-1.342c0-.249.029-.505.085-.769l.002-.002zm1.888 0a1.94 1.94 0 00-.04.382c0 .233.049.44.146.617.097.179.238.318.42.418.183.098.396.147.639.147.288 0 .56-.068.817-.202.256-.135.473-.322.653-.558a1.986 1.986 0 00.404-1.193c0-.233-.048-.44-.145-.62a1.03 1.03 0 00-.421-.419 1.327 1.327 0 00-.639-.148c-.285 0-.556.069-.814.203a1.914 1.914 0 00-.656.563c-.18.24-.301.51-.364.81zm11.362 3.252h-1.889l1.012-4.781h-1.173l-.66 2.407a4.17 4.17 0 01-.591 1.288c-.259.37-.561.656-.904.859a2.094 2.094 0 01-1.082.304 3.81 3.81 0 01-.762-.077 3.147 3.147 0 01-.659-.202l.404-.981c.07-.171.151-.293.243-.362a.593.593 0 01.37-.105c.072 0 .174.01.305.032a.678.678 0 00.113.013c.138 0 .273-.084.403-.252.13-.168.23-.381.303-.64l1.106-4.016h4.843l-1.381 6.513h-.001zm8.679-6.513l-1.38 6.513h-1.87l1.096-4.296a2.607 2.607 0 01-.143.364 1.297 1.297 0 01-.154.256l-2.886 3.401a.932.932 0 01-.239.22.565.565 0 01-.27.054h-1.529l1.38-6.513h1.866l-.917 3.49c.02-.05.074-.143.158-.276.084-.134.153-.23.207-.29l2.288-2.618a.96.96 0 01.284-.247.771.771 0 01.333-.06h1.776v.002zm6.37 0l-1.38 6.513h-1.889l.414-1.96h-.431l-1.237 1.624a1.075 1.075 0 01-.278.27.694.694 0 01-.334.068h-1.955l1.758-2.137c.121-.147.229-.247.328-.296a.895.895 0 01.401-.074h.045c-.3-.098-.535-.27-.707-.511a1.416 1.416 0 01-.259-.844c0-.123.013-.249.04-.378.09-.426.274-.813.554-1.16a3 3 0 011.011-.82 2.722 2.722 0 011.237-.296h2.684l-.002.001zm-2.267 1.777h-.696a.657.657 0 00-.41.136.59.59 0 00-.225.362.606.606 0 00-.013.122c0 .114.039.206.118.274a.44.44 0 00.305.103h.711l.212-.999-.002.002zm10.5 4.736h-1.888l.427-2.024a8.884 8.884 0 01-1.353.14c-.429 0-.792-.073-1.094-.217a1.516 1.516 0 01-.686-.628c-.157-.274-.233-.605-.233-.992 0-.224.027-.468.081-.728l.444-2.065h1.894l-.473 2.065a1.112 1.112 0 00-.027.224c0 .186.058.33.174.432.116.102.276.154.486.154a8.53 8.53 0 001.152-.095l.589-2.779h1.889l-1.38 6.513h-.002zm8.678-6.513l-1.38 6.513h-1.87l1.096-4.296a2.607 2.607 0 01-.143.364 1.297 1.297 0 01-.154.256l-2.887 3.401a.9.9 0 01-.239.22.56.56 0 01-.269.054h-1.529l1.38-6.513h1.865l-.916 3.49c.02-.05.073-.143.157-.276.085-.134.154-.23.208-.29l2.288-2.618a.948.948 0 01.284-.247.771.771 0 01.333-.06h1.776v.002zm-.075 6.513l1.38-6.513h1.889l-1.38 6.513h-1.889zm4.812-3.355a.785.785 0 01.344.18.755.755 0 01.218.264l1.16 2.91h-1.654a.603.603 0 01-.616-.423l-.827-2.437a.678.678 0 00-.145-.26.67.67 0 00-.174-.136 2.665 2.665 0 00-.243-.103c.123-.039.223-.08.3-.126a.664.664 0 00.2-.184l1.844-2.5a.9.9 0 01.283-.243.674.674 0 01.329-.1h1.87l-2.13 2.698c-.073.09-.184.183-.338.279a1.105 1.105 0 01-.419.17v.01h-.002zm9.139 3.355h-1.479a.656.656 0 01-.32-.085.838.838 0 01-.264-.229.743.743 0 01-.139-.306l-.094-.455h-2.325l-.288.455a1.406 1.406 0 01-.442.436 1.004 1.004 0 01-.543.184h-1.479l4.227-6.513h1.682l1.465 6.513h-.001zm-2.572-2.37l-.212-1.007a1.428 1.428 0 01-.023-.297 4.502 4.502 0 01.075-.787h-.017c-.033.174-.09.368-.172.58a3 3 0 01-.242.504l-.639 1.007h1.23zm10.608-4.143l-1.381 6.513h-1.888l.508-2.393h-2.158l-.509 2.393h-1.888l1.38-6.513h1.889l-.509 2.388h2.159l.508-2.388h1.889zm5.458 6.513h-1.889l.427-2.024c-.23.042-.466.076-.705.1a6.09 6.09 0 01-.648.04c-.428 0-.792-.073-1.093-.217a1.518 1.518 0 01-.687-.628c-.156-.274-.233-.605-.233-.992 0-.224.028-.468.081-.728l.445-2.065h1.893l-.472 2.065a1.05 1.05 0 00-.028.224c0 .186.058.33.174.432.116.102.277.154.487.154.317 0 .701-.032 1.151-.095l.59-2.779h1.888l-1.38 6.513h-.001zm8.679-6.513l-1.381 6.513h-1.869l1.096-4.296a2.607 2.607 0 01-.143.364 1.297 1.297 0 01-.154.256l-2.887 3.401a.9.9 0 01-.239.22.56.56 0 01-.269.054h-1.53l1.381-6.513h1.865l-.917 3.49c.021-.05.074-.143.158-.276.084-.134.154-.23.207-.29l2.289-2.618a.948.948 0 01.284-.247.771.771 0 01.333-.06h1.776v.002zM114.636 53.177h3.747l4.578-21.6h-15.194l-3.885 14.106c-.005.026-.011.05-.018.077a10.426 10.426 0 01-.599 1.634 7.64 7.64 0 01-.861 1.422c-.846 1.09-1.821 1.634-2.91 1.634-.112 0-.24-.009-.388-.026a6.507 6.507 0 01-.361-.06 6.022 6.022 0 00-.86-.086c-.142 0-.253.011-.33.033l-.037.01-.013.01a.563.563 0 00-.11.133 2.86 2.86 0 00-.265.528h-.002l-.005.015-.858 2.079a12.871 12.871 0 003.176.388c.576 0 1.132-.075 1.665-.226a6.847 6.847 0 001.542-.652 1.66 1.66 0 01.08-.05 8.575 8.575 0 001.55-1.174c.503-.479.967-1.022 1.395-1.632.437-.626.824-1.304 1.16-2.036a15.85 15.85 0 00.862-2.39h.001l2.499-9.1a1.723 1.723 0 011.696-1.422h4.513v.003a1.72 1.72 0 011.682 2.078l-3.45 16.307v-.003z"/><path d="M65.997 41.792c.285-1.324.71-2.59 1.272-3.795l-.006-.002a17.76 17.76 0 012.136-3.467 18.332 18.332 0 012.823-2.889 18.177 18.177 0 013.388-2.182 17.341 17.341 0 013.796-1.387 17.372 17.372 0 014.008-.462c2.418 0 4.554.481 6.407 1.44.944.49 1.784 1.078 2.52 1.77a10.48 10.48 0 011.892 2.38c.517.887.902 1.838 1.158 2.853.254 1.005.38 2.064.38 3.175a16.443 16.443 0 01-.385 3.415 17.947 17.947 0 01-1.265 3.8 17.643 17.643 0 01-2.127 3.456 18.044 18.044 0 01-6.23 5.06 17.577 17.577 0 01-3.81 1.376 17.59 17.59 0 01-4.022.46c-2.406 0-4.537-.48-6.39-1.44a11.037 11.037 0 01-2.517-1.77 10.452 10.452 0 01-1.884-2.385c-.514-.889-.9-1.84-1.154-2.853a12.958 12.958 0 01-.378-3.17 16.132 16.132 0 01.37-3.315c.003-.023.01-.044.015-.068h.003zm-27.53-12l-5.286 24.943a1.719 1.719 0 01-1.683 1.363v.003H1.722a1.723 1.723 0 01-1.66-2.185L5.35 28.973a1.718 1.718 0 011.683-1.363v-.003h7.263a1.723 1.723 0 011.66 2.183l-3.429 16.204h.478l3.6-17.021a1.719 1.719 0 011.684-1.363v-.003h7.262a1.723 1.723 0 011.66 2.183l-3.428 16.204h.478l3.6-17.021a1.72 1.72 0 011.684-1.363v-.003h7.262a1.723 1.723 0 011.66 2.185h.002zm-2.46 24.124l5.287-24.943a1.719 1.719 0 011.683-1.363v-.003h7.262a1.723 1.723 0 011.66 2.185l-1.744 8.226 6.184-8.39.06-.078c.2-.258.428-.497.683-.715.037-.032.076-.062.115-.091.248-.201.508-.378.775-.529a5.015 5.015 0 011.003-.43 3.76 3.76 0 011.1-.177h7.194a1.723 1.723 0 011.245 2.912l-8.097 10.254a5.458 5.458 0 01-.78.791c-.061.05-.126.101-.193.153.206.268.365.544.48.823.017.044.033.089.047.134l4.414 11.072a1.717 1.717 0 01-1.595 2.35v.007h-6.363c-.452 0-.88-.058-1.285-.175a4.045 4.045 0 01-2.123-1.473 4.185 4.185 0 01-.585-1.151l-.005.001-3.182-9.375a1.364 1.364 0 00-.116-.28.392.392 0 00-.06-.085 3.512 3.512 0 00-.079-.077l-2.384 11.247a1.719 1.719 0 01-1.683 1.364v.003h-7.263a1.723 1.723 0 01-1.66-2.186h.005zm83.768 2.185h-7.263a1.722 1.722 0 01-1.66-2.184l3.429-16.204h-1.085l-2.193 7.983-.002.006h.002a19.414 19.414 0 01-1.05 2.904 16.28 16.28 0 01-1.47 2.574 14.214 14.214 0 01-1.84 2.157 12.086 12.086 0 01-2.168 1.645c-.035.02-.07.04-.105.057-.761.44-1.542.772-2.339.995a9.57 9.57 0 01-2.593.361 16.32 16.32 0 01-3.27-.334 16.12 16.12 0 01-1.52-.383 11.847 11.847 0 01-1.365-.51 1.715 1.715 0 01-.893-2.221l-.002-.002 1.55-3.757c.176-.438.377-.826.6-1.16.266-.396.562-.72.891-.97a1.89 1.89 0 01.154-.104 3.607 3.607 0 011.04-.483 4.62 4.62 0 011.26-.168c.343 0 .826.05 1.445.148l.047.008c.026.003.066.01.12.016.026-.01.04-.11.187-.3.178-.231.336-.49.471-.776a6.69 6.69 0 00.396-1.083l.022-.072 4.233-15.368c.208-.764.9-1.267 1.655-1.267v-.007h18.623a1.723 1.723 0 011.66 2.185l-5.287 24.943a1.72 1.72 0 01-1.683 1.364v.003l.003.004zm32.278 0h-5.689c-.354 0-.709-.048-1.065-.142a4.416 4.416 0 01-.996-.401 4.936 4.936 0 01-1.56-1.36 4.948 4.948 0 01-.531-.888 4.536 4.536 0 01-.323-.995l-.007-.038-.064-.31h-6.596l-.599.946c-.012.02-.025.038-.038.057a6.752 6.752 0 01-.939 1.15 7.726 7.726 0 01-1.248.996 6.64 6.64 0 01-1.447.713 4.858 4.858 0 01-1.567.272h-5.69a1.722 1.722 0 01-1.364-2.773l16.179-24.933a1.72 1.72 0 011.44-.783v-.005h6.467c.869 0 1.586.643 1.705 1.479l5.607 24.916a1.719 1.719 0 01-1.676 2.095v.006l.001-.002zm-75.44-13.37a7.328 7.328 0 00-.096.602l-.004.033c-.015.15-.022.316-.022.498 0 .316.032.608.094.871.06.258.146.486.255.684a2.237 2.237 0 00.92.91c.218.119.456.207.71.267.275.064.585.095.93.095.83 0 1.611-.192 2.341-.576a5.73 5.73 0 001.05-.71 5.874 5.874 0 001.564-2.078c.183-.403.321-.826.415-1.268h-.004a6.39 6.39 0 00.097-.6c.017-.162.026-.346.026-.552 0-.325-.03-.619-.091-.881a2.716 2.716 0 00-.26-.691 2.224 2.224 0 00-.382-.516c-.15-.15-.33-.28-.537-.393a2.823 2.823 0 00-.712-.266 4.117 4.117 0 00-.93-.096c-.822 0-1.602.193-2.336.577a5.629 5.629 0 00-1.051.714 6.011 6.011 0 00-1.567 2.104 6.23 6.23 0 00-.415 1.272h.006z"/><path d="M56.045 43.76a.97.97 0 00-.147-.062 1.723 1.723 0 01-1.453-1.703v-.035h.003a1.722 1.722 0 011.478-1.704c.116-.016.236-.05.36-.101.164-.067.355-.17.574-.307a5.55 5.55 0 00.584-.418c.126-.104.216-.187.27-.249l.012-.016 5.995-7.591h-3.645a.371.371 0 00-.106.016 1.79 1.79 0 00-.316.148 2.516 2.516 0 00-.287.182 1.723 1.723 0 01-.053.048 1.409 1.409 0 00-.186.187l-.019.026-7.09 9.617c-.058.08-.12.16-.186.236a4.398 4.398 0 01.637 1.219c.011.029.023.058.033.088l3.182 9.375-.004.002.004.011a.715.715 0 00.106.208.526.526 0 00.117.116c.044.03.103.056.176.076.092.026.207.04.341.04h3.83l-3.472-8.71a2.522 2.522 0 01-.05-.11c-.003-.008-.012-.01-.042-.047a2.485 2.485 0 00-.316-.315 1.785 1.785 0 00-.332-.233l.002.006zM44.369 31.575L39.79 53.177h3.747l4.577-21.602H44.37zM30.106 53.177l4.578-21.6H30.94l-3.58 16.918a1.723 1.723 0 01-1.703 1.47h-3.994v-.003a1.72 1.72 0 01-1.682-2.078l3.45-16.307h-3.747l-3.58 16.918a1.723 1.723 0 01-1.703 1.47h-3.994v-.003a1.72 1.72 0 01-1.682-2.078l3.45-16.307H8.427l-4.578 21.6h26.26-.003z"/><path d="M36.806 29.852L31.498 54.9H1.722l5.309-25.047h7.262l-3.89 18.387h3.995l3.89-18.388h7.262L21.66 48.24h3.993l3.89-18.388h7.263zm.861 25.048l5.308-25.047h7.263L44.929 54.9h-7.262zm18.502-12.905c.45.093.894.323 1.326.693.431.37.708.708.836 1.02L62.79 54.9h-6.36c-.588 0-1.084-.145-1.494-.426-.41-.283-.702-.681-.876-1.2L50.877 43.9c-.14-.416-.323-.749-.56-.997a2.505 2.505 0 00-.669-.524 11.73 11.73 0 00-.934-.399c.473-.149.86-.311 1.153-.484a2.55 2.55 0 00.766-.708l7.09-9.617c.266-.358.63-.67 1.09-.93.46-.258.882-.386 1.261-.386h7.193l-8.196 10.38c-.277.346-.709.702-1.297 1.071-.588.37-1.124.589-1.608.658v.035l.003-.003zm11.493.399a15.906 15.906 0 013.09-6.625 16.386 16.386 0 015.626-4.6 15.526 15.526 0 017.038-1.661c2.143 0 4.017.416 5.62 1.246 1.602.83 2.841 1.99 3.712 3.483.87 1.494 1.302 3.217 1.302 5.166 0 .98-.11 1.978-.329 2.992a15.879 15.879 0 01-3.078 6.613 16.22 16.22 0 01-5.637 4.585 15.739 15.739 0 01-7.073 1.655c-2.132 0-4-.416-5.602-1.246-1.602-.83-2.836-1.996-3.701-3.49-.865-1.494-1.296-3.21-1.296-5.16 0-.957.11-1.943.328-2.957v-.001zm7.263 0a7.464 7.464 0 00-.155 1.47c0 .9.19 1.69.565 2.375a3.927 3.927 0 001.613 1.603c.704.38 1.523.57 2.455.57a6.665 6.665 0 003.142-.777 7.526 7.526 0 002.513-2.145 7.643 7.643 0 001.556-4.584c0-.9-.184-1.696-.56-2.387a3.928 3.928 0 00-1.619-1.608c-.702-.382-1.52-.571-2.455-.571-1.095 0-2.138.26-3.13.778a7.457 7.457 0 00-2.525 2.162 7.785 7.785 0 00-1.4 3.114zM119.774 54.9h-7.262l3.89-18.388h-4.513l-2.542 9.255c-.519 1.88-1.273 3.528-2.271 4.953-.997 1.424-2.156 2.525-3.476 3.303-1.32.778-2.709 1.171-4.162 1.171-.99 0-1.965-.098-2.927-.294-.963-.196-1.81-.455-2.536-.778l1.555-3.77c.265-.658.577-1.125.934-1.396.358-.27.83-.404 1.418-.404.277 0 .67.04 1.177.122.184.034.328.052.431.052.53 0 1.049-.323 1.55-.97.501-.646.888-1.465 1.165-2.456l4.254-15.447h18.622L119.773 54.9h.001zm32.279 0h-5.69a2.53 2.53 0 01-1.234-.329 3.155 3.155 0 01-1.014-.882 2.867 2.867 0 01-.535-1.177l-.364-1.748h-8.94l-1.106 1.748c-.405.646-.969 1.206-1.701 1.678-.731.472-1.43.709-2.087.709h-5.69l16.255-25.048h6.467l5.637 25.047.002.002zm-9.89-9.116l-.813-3.874c-.058-.23-.087-.612-.087-1.142 0-.484.029-1.003.082-1.556.052-.554.121-1.044.212-1.471h-.069c-.128.67-.346 1.413-.663 2.231-.318.819-.629 1.465-.929 1.938l-2.455 3.874h4.722z"/><path fill-rule="evenodd" clip-rule="evenodd" d="M299.981 11.892a1.67 1.67 0 11-.002 3.34 1.67 1.67 0 01.002-3.34zm-7.7 4.495a336.75 336.75 0 002.305-1.837c.456-.368.678-.437 1.211-.355.83.127 1.839.386 2.242.555.308.127 1.655 1.021 1.848 1.239.151.17.545 1.363.776 1.943.144.358.258.411.67.394.523-.022 1.18-.067 1.405-.051.372.026.757.296.769.81.013.513-.481.803-.816.808-.26.005-1.522.04-2.236.056-.552.013-.901-.142-1.139-.626-.247-.503-.262-.544-.437-.944l-.997 1.448a.348.348 0 00-.004.414c.103.154 1.596 1.146 1.866 1.365.269.22.546.794.237 1.365-.24.447-1.286 2.227-1.917 3.265-.355.582-.687 1.285-1.505.842-.622-.338-.341-1.173-.18-1.535.148-.33.627-1.337.985-2.162.171-.392.249-.568-.038-.753-.426-.277-.721-.502-1.245-.86-.268.36-.62.869-1.04 1.42-.554.725-.798.771-1.662.753-1.147-.025-2.91-.115-3.217-.196-.436-.116-.898-.539-.795-1.117.103-.578.642-.874 1.233-.886.591-.013 2.452.026 2.592.014.141-.014 1.117-1.593 1.169-1.72.051-.13-.259-.537.333-1.297.594-.761 1.637-2.145 1.637-2.145.196-.327-.443-.585-.725-.526-.187.04-2.049 1.271-2.273 1.387-.225.116-.749.216-1.044-.157-.296-.372-.163-.749-.009-.91l.001-.001z"/><path fill-rule="evenodd" clip-rule="evenodd" d="M299.481 16.325c-.25-.238-1.363-.974-1.645-1.091-.574-.24-1.493-.425-2.119-.52-.401-.062-.484-.014-.803.244-.748.606-1.503 1.216-2.264 1.806-.036.066.009.155.051.207.078.1.297.067.394.016.348-.184.745-.468 1.082-.681.262-.167 1.047-.696 1.324-.754.223-.046.475-.004.687.074.511.189.921.693.593 1.236l-.014.023-.016.022c-.542.72-1.088 1.44-1.643 2.152-.508.652-.072.7-.26 1.17-.107.269-.423.725-.587.976-.13.201-.265.404-.407.597-.155.21-.33.448-.614.474-.164.014-.365.004-.53.003-.301-.003-.603-.008-.905-.01-.397-.005-.798-.012-1.195-.003-.297.005-.668.117-.727.453-.045.255.189.46.412.519.184.045.499.056.691.07a47.948 47.948 0 002.405.107c.705.016.798.026 1.234-.547.355-.465.686-.946 1.037-1.414l.3-.401.414.282c.413.281.817.58 1.235.852.587.381.47.862.234 1.403-.318.729-.665 1.44-.987 2.165-.075.17-.294.729-.049.86.065.035.196.1.274.067.174-.077.434-.556.533-.72.259-.425.514-.852.767-1.28.383-.644.783-1.302 1.137-1.96.116-.215.089-.55-.107-.709-.271-.218-.607-.433-.895-.634-.242-.17-.924-.617-1.078-.846a.875.875 0 01.009-1.003l1.531-2.223.378.862c.138.315.275.615.428.923.149.305.328.34.656.334.746-.018 1.492-.041 2.237-.055.129-.003.305-.127.302-.271-.005-.174-.107-.287-.281-.3-.286-.02-.665.018-.956.033l-.391.019c-.616.026-.943-.135-1.178-.723-.111-.279-.211-.563-.316-.845-.087-.238-.249-.738-.378-.956v-.003zm.5-3.915a1.152 1.152 0 110 2.305 1.152 1.152 0 010-2.304zm-14.593 11.805a1.191 1.191 0 11-.001 2.382 1.191 1.191 0 01.001-2.383z"/><path fill-rule="evenodd" clip-rule="evenodd" d="M285.388 23.728a1.678 1.678 0 110 3.356 1.678 1.678 0 010-3.356zm-.482-11.584a1.19 1.19 0 110 2.382 1.19 1.19 0 010-2.382z"/><path fill-rule="evenodd" clip-rule="evenodd" d="M284.906 11.657a1.678 1.678 0 11-.002 3.356 1.678 1.678 0 01.002-3.356zm-3.299 5.485c-.428.884-.853 1.772-1.274 2.66-.383.807-.804 1.652-1.139 2.48-.172.425.349.686.587.425.222-.244.75-.925 1.188-1.533.585-.811 1.024-1.569 1.284-1.42.28.16-.062.938-.459 1.93-.344.866-.78 1.944-.873 2.173-.217.536-.445 1.08-.64 1.624-.326.91.462 1.174.831.614.075-.12.151-.304.209-.434.14-.313.276-.63.411-.947a411.233 411.233 0 002.268-5.51c.184-.455.364-.922.557-1.374.137-.323.462-.553.818-.42l.042.016.039.023c.314.186 1.269.75 1.609.842a.475.475 0 00.18-.048c.4-.333.799-.67 1.196-1.005.381-.322.795-.654 1.158-.993.071-.067.078-.264.018-.332-.079-.087-.257-.05-.341.019-.232.19-.46.396-.686.593-.252.221-.583.537-.86.715-.336.216-.844.241-1.144.002-.196-.133-.413-.26-.614-.384-.402-.25-.803-.497-1.205-.744-.594-.365-1.214-.77-1.823-1.108-.182-.101-.56-.135-.766-.113-.821.087-1.648.197-2.469.298-.528.066-1.055.132-1.581.2-.269.035-.576.066-.841.12-.136.027-.262.082-.252.238.014.216.104.316.324.306 1.162-.06 2.334-.11 3.497-.145.754-.023 1.064.63.747 1.232h.004z"/><path fill-rule="evenodd" clip-rule="evenodd" d="M277.185 14.997c.393-.08 4.637-.594 4.942-.626.305-.032.787.016 1.075.177.288.161 3.611 2.204 3.691 2.268.078.062.333.129.557-.015.225-.144 1.145-.983 1.497-1.273.353-.289.83-.218 1.058.032.229.249.263.78-.046 1.069-.308.288-2.409 2.044-2.409 2.044s-.208.145-.512.145c-.305 0-1.846-.914-1.846-.914s-.079-.032-.152.136c-.072.168-3.146 7.828-3.488 8.344-.686 1.038-2.313.457-1.762-1.078.266-.747 1.392-3.462 1.392-3.462s-.389.529-1.011 1.216c-.623.686-1.854-.005-1.46-.976.392-.97 2.43-5.18 2.43-5.18s.265-.485-.265-.47c-.529.017-2.771.11-3.485.146-.714.036-.859-.547-.875-.796-.016-.25.09-.666.669-.787zm-9.403-1.356s.626.168 1.236.923c.609.755.754.914 1.21 1.18.458.265 1.733.224 2.206-.674.474-.899.322-1.846-.585-2.343-.906-.497-2.138-.261-2.771-.074-.634.187-1.785.74-1.296.988z"/><path fill-rule="evenodd" clip-rule="evenodd" d="M268.559 13.43c.34.224.653.526.873.798.346.427.585.777 1.063 1.053.165.096.543.076.723.038.304-.062.594-.214.744-.5.328-.622.287-1.266-.37-1.627-.67-.367-1.666-.236-2.363-.03a5.3 5.3 0 00-.67.265v.003zm-4.86 3.445s3.242-2.424 3.546-2.6c.304-.176.898-.176 1.331.434.433.61 2.07 2.52 2.278 2.649.209.129 1.32.322 2.022.498.703.177.762.819.674 1.155-.088.338-.453.662-1.027.546a118.53 118.53 0 01-2.361-.543c-.536-.126-.689-.217-1.059-.646-.388-.45-.851-1.025-.976-1.058-.177-.048-1.469.995-1.492 1.172-.017.13.585.55 1.072.894.479.34.582.53.527 1.16-.103 1.173-.424 2.89-.523 3.364-.119.574-.501 1.001-1.206.85-.706-.153-.835-.849-.777-1.235.064-.425.196-1.465.293-2.104.067-.44-.036-.522-.461-.838-.585-.436-1.506-1.1-2.007-1.518-.653-.547-.529-1.616.145-2.177l.001-.003z"/><path fill-rule="evenodd" clip-rule="evenodd" d="M264.033 17.294c-.373.319-.554 1-.135 1.349.629.526 1.325 1.009 1.984 1.5.527.392.775.645.669 1.346-.105.7-.186 1.404-.292 2.104-.042.275.066.57.362.633.359.077.501-.098.571-.436.218-1.056.42-2.227.514-3.302.036-.413.029-.44-.304-.677-.086-.06-.171-.122-.257-.183-.359-.256-1.106-.702-1.035-1.22.05-.37.601-.79.877-1.01.306-.243.869-.717 1.284-.604.365.099.982.926 1.24 1.224.289.337.349.376.777.476.777.184 1.565.38 2.345.539.142.029.36.014.405-.158.063-.245-.042-.44-.289-.503-.236-.06-.475-.111-.714-.162-.355-.077-1.164-.219-1.457-.399-.178-.11-.429-.401-.572-.559a34.807 34.807 0 01-.795-.911c-.358-.422-.745-.873-1.065-1.323-.12-.168-.407-.409-.628-.282-.196.116-.416.29-.602.425a276.032 276.032 0 00-2.881 2.133h-.002z"/><path fill-rule="evenodd" clip-rule="evenodd" d="M262.217 20.173a3.068 3.068 0 010 6.135 3.067 3.067 0 010-6.135z"/><path fill-rule="evenodd" clip-rule="evenodd" d="M262.217 20.772a2.469 2.469 0 11-.001 4.937 2.469 2.469 0 01.001-4.937zm9.234-.599a3.067 3.067 0 11-.002 6.134 3.067 3.067 0 01.002-6.134z"/><path fill-rule="evenodd" clip-rule="evenodd" d="M271.451 20.772a2.469 2.469 0 11-.001 4.937 2.469 2.469 0 01.001-4.937z"/></g><defs><clipPath id="cclip0"><path d="M0 0h305v71H0z"/></clipPath></defs></symbol><symbol viewBox="0 0 134 134" id="svg--1" xmlns="http://www.w3.org/2000/svg"><circle cx="67.5" cy="67.5" r="60.5"/><circle cx="67" cy="67" r="66.5" fill-opacity=".25"/><path d="M67.52 69.296c0 5.52-.6 10.248-1.8 14.184-1.152 3.936-3.048 6.96-5.688 9.072-2.592 2.112-6.096 3.168-10.512 3.168-6.192 0-10.728-2.328-13.608-6.984-2.88-4.704-4.32-11.184-4.32-19.44 0-5.568.576-10.32 1.728-14.256 1.152-3.936 3.048-6.96 5.688-9.072 2.64-2.112 6.144-3.168 10.512-3.168 6.144 0 10.68 2.328 13.608 6.984 2.928 4.656 4.392 11.16 4.392 19.512zm-25.128 0c0 5.856.504 10.272 1.512 13.248 1.008 2.928 2.88 4.392 5.616 4.392 2.688 0 4.56-1.464 5.616-4.392 1.056-2.928 1.584-7.344 1.584-13.248 0-5.856-.528-10.272-1.584-13.248-1.056-2.976-2.928-4.464-5.616-4.464-2.736 0-4.608 1.488-5.616 4.464-1.008 2.976-1.512 7.392-1.512 13.248zM98.859 95H87.987V65.264c0-1.248.024-2.88.072-4.896.096-2.016.168-3.792.216-5.328-.24.288-.768.816-1.584 1.584a65.633 65.633 0 01-2.16 1.944l-5.904 4.752-5.256-6.552 16.56-13.176h8.928V95z"/></symbol><symbol viewBox="0 0 134 134" id="svg--2" xmlns="http://www.w3.org/2000/svg"><circle cx="67.5" cy="67.5" r="60.5"/><circle cx="67" cy="67" r="66.5" fill-opacity=".25"/><path d="M64.52 66.296c0 5.52-.6 10.248-1.8 14.184-1.152 3.936-3.048 6.96-5.688 9.072-2.592 2.112-6.096 3.168-10.512 3.168-6.192 0-10.728-2.328-13.608-6.984-2.88-4.704-4.32-11.184-4.32-19.44 0-5.568.576-10.32 1.728-14.256 1.152-3.936 3.048-6.96 5.688-9.072 2.64-2.112 6.144-3.168 10.512-3.168 6.144 0 10.68 2.328 13.608 6.984 2.928 4.656 4.392 11.16 4.392 19.512zm-25.128 0c0 5.856.504 10.272 1.512 13.248 1.008 2.928 2.88 4.392 5.616 4.392 2.688 0 4.56-1.464 5.616-4.392 1.056-2.928 1.584-7.344 1.584-13.248 0-5.856-.528-10.272-1.584-13.248-1.056-2.976-2.928-4.464-5.616-4.464-2.736 0-4.608 1.488-5.616 4.464-1.008 2.976-1.512 7.392-1.512 13.248zM104.931 92H69.003v-7.56l12.888-13.032c2.592-2.688 4.68-4.92 6.264-6.696 1.584-1.824 2.736-3.456 3.456-4.896a10.77 10.77 0 001.08-4.752c0-2.064-.576-3.6-1.728-4.608-1.104-1.008-2.616-1.512-4.536-1.512-1.968 0-3.888.456-5.76 1.368-1.872.912-3.84 2.208-5.904 3.888l-5.904-6.984a48.469 48.469 0 014.68-3.6c1.68-1.104 3.6-1.992 5.76-2.664 2.208-.72 4.848-1.08 7.92-1.08 3.36 0 6.24.624 8.64 1.872 2.448 1.2 4.32 2.856 5.616 4.968 1.344 2.064 2.016 4.416 2.016 7.056 0 2.832-.576 5.424-1.728 7.776-1.104 2.352-2.736 4.68-4.896 6.984-2.112 2.304-4.68 4.848-7.704 7.632l-6.624 6.192v.504h22.392V92z"/></symbol><symbol viewBox="0 0 134 134" id="svg--3" xmlns="http://www.w3.org/2000/svg"><circle cx="67.5" cy="67.5" r="60.5"/><circle cx="67" cy="67" r="66.5" fill-opacity=".25"/><path d="M64.52 69.296c0 5.52-.6 10.248-1.8 14.184-1.152 3.936-3.048 6.96-5.688 9.072-2.592 2.112-6.096 3.168-10.512 3.168-6.192 0-10.728-2.328-13.608-6.984-2.88-4.704-4.32-11.184-4.32-19.44 0-5.568.576-10.32 1.728-14.256 1.152-3.936 3.048-6.96 5.688-9.072 2.64-2.112 6.144-3.168 10.512-3.168 6.144 0 10.68 2.328 13.608 6.984 2.928 4.656 4.392 11.16 4.392 19.512zm-25.128 0c0 5.856.504 10.272 1.512 13.248 1.008 2.928 2.88 4.392 5.616 4.392 2.688 0 4.56-1.464 5.616-4.392 1.056-2.928 1.584-7.344 1.584-13.248 0-5.856-.528-10.272-1.584-13.248-1.056-2.976-2.928-4.464-5.616-4.464-2.736 0-4.608 1.488-5.616 4.464-1.008 2.976-1.512 7.392-1.512 13.248zm63.523-14.184c0 3.552-1.08 6.384-3.24 8.496-2.112 2.112-4.728 3.552-7.848 4.32v.216c4.128.48 7.248 1.728 9.36 3.744 2.16 2.016 3.24 4.728 3.24 8.136 0 2.976-.744 5.664-2.232 8.064-1.44 2.352-3.696 4.224-6.768 5.616-3.024 1.344-6.936 2.016-11.736 2.016-5.568 0-10.512-.936-14.832-2.808v-9.216a32.219 32.219 0 006.912 2.52c2.448.576 4.704.864 6.768.864 3.888 0 6.6-.672 8.136-2.016 1.584-1.344 2.376-3.24 2.376-5.688 0-1.44-.36-2.64-1.08-3.6-.72-1.008-1.992-1.752-3.816-2.232-1.776-.528-4.272-.792-7.488-.792H76.78V64.4h3.96c3.168 0 5.568-.288 7.2-.864 1.68-.624 2.808-1.44 3.384-2.448.624-1.056.936-2.256.936-3.6 0-1.824-.576-3.24-1.728-4.248-1.104-1.056-2.976-1.584-5.616-1.584-2.448 0-4.584.432-6.408 1.296-1.776.816-3.288 1.632-4.536 2.448l-5.04-7.488c2.016-1.44 4.368-2.64 7.056-3.6 2.736-.96 5.976-1.44 9.72-1.44 5.28 0 9.456 1.08 12.528 3.24 3.12 2.112 4.68 5.112 4.68 9z"/></symbol><symbol viewBox="0 0 134 134" id="svg--4" xmlns="http://www.w3.org/2000/svg"><circle cx="67.5" cy="67.5" r="60.5"/><circle cx="67" cy="67" r="66.5" fill-opacity=".25"/><path d="M67.52 64.296c0 5.52-.6 10.248-1.8 14.184-1.152 3.936-3.048 6.96-5.688 9.072-2.592 2.112-6.096 3.168-10.512 3.168-6.192 0-10.728-2.328-13.608-6.984-2.88-4.704-4.32-11.184-4.32-19.44 0-5.568.576-10.32 1.728-14.256 1.152-3.936 3.048-6.96 5.688-9.072 2.64-2.112 6.144-3.168 10.512-3.168 6.144 0 10.68 2.328 13.608 6.984 2.928 4.656 4.392 11.16 4.392 19.512zm-25.128 0c0 5.856.504 10.272 1.512 13.248 1.008 2.928 2.88 4.392 5.616 4.392 2.688 0 4.56-1.464 5.616-4.392 1.056-2.928 1.584-7.344 1.584-13.248 0-5.856-.528-10.272-1.584-13.248-1.056-2.976-2.928-4.464-5.616-4.464-2.736 0-4.608 1.488-5.616 4.464-1.008 2.976-1.512 7.392-1.512 13.248zm66.691 15.048h-6.192V90H92.307V79.344h-21.96v-7.56l22.536-33.192h10.008V70.92h6.192v8.424zM92.307 70.92v-8.712c0-1.104.024-2.448.072-4.032.048-1.584.096-3.048.144-4.392a84.39 84.39 0 01.216-2.736h-.288c-.432.96-.888 1.896-1.368 2.808a26.188 26.188 0 01-1.728 2.808L79.923 70.92h12.384z"/></symbol><symbol viewBox="0 0 134 134" id="svg--5" xmlns="http://www.w3.org/2000/svg"><circle cx="67.5" cy="67.5" r="60.5"/><circle cx="67" cy="67" r="66.5" fill-opacity=".25"/><path d="M64.52 66.296c0 5.52-.6 10.248-1.8 14.184-1.152 3.936-3.048 6.96-5.688 9.072-2.592 2.112-6.096 3.168-10.512 3.168-6.192 0-10.728-2.328-13.608-6.984-2.88-4.704-4.32-11.184-4.32-19.44 0-5.568.576-10.32 1.728-14.256 1.152-3.936 3.048-6.96 5.688-9.072 2.64-2.112 6.144-3.168 10.512-3.168 6.144 0 10.68 2.328 13.608 6.984 2.928 4.656 4.392 11.16 4.392 19.512zm-25.128 0c0 5.856.504 10.272 1.512 13.248 1.008 2.928 2.88 4.392 5.616 4.392 2.688 0 4.56-1.464 5.616-4.392 1.056-2.928 1.584-7.344 1.584-13.248 0-5.856-.528-10.272-1.584-13.248-1.056-2.976-2.928-4.464-5.616-4.464-2.736 0-4.608 1.488-5.616 4.464-1.008 2.976-1.512 7.392-1.512 13.248zm48.331-7.128c3.12 0 5.904.6 8.352 1.8 2.448 1.2 4.368 2.952 5.76 5.256 1.44 2.304 2.16 5.16 2.16 8.568 0 5.568-1.728 9.96-5.184 13.176-3.456 3.168-8.568 4.752-15.336 4.752-2.688 0-5.232-.24-7.632-.72-2.352-.48-4.416-1.176-6.192-2.088v-9.36c1.776.912 3.912 1.704 6.408 2.376 2.496.624 4.848.936 7.056.936 3.216 0 5.664-.648 7.344-1.944 1.728-1.344 2.592-3.408 2.592-6.192 0-5.184-3.432-7.776-10.296-7.776-1.344 0-2.736.144-4.176.432-1.44.24-2.64.48-3.6.72L70.66 66.8l1.944-26.208h27.864v9.216h-18.36l-.936 10.08c.816-.144 1.68-.288 2.592-.432.96-.192 2.28-.288 3.96-.288z"/></symbol><symbol viewBox="0 0 134 134" id="svg--6" xmlns="http://www.w3.org/2000/svg"><circle cx="67.5" cy="67.5" r="60.5"/><circle cx="67" cy="67" r="66.5" fill-opacity=".25"/><path d="M64.52 69.296c0 5.52-.6 10.248-1.8 14.184-1.152 3.936-3.048 6.96-5.688 9.072-2.592 2.112-6.096 3.168-10.512 3.168-6.192 0-10.728-2.328-13.608-6.984-2.88-4.704-4.32-11.184-4.32-19.44 0-5.568.576-10.32 1.728-14.256 1.152-3.936 3.048-6.96 5.688-9.072 2.64-2.112 6.144-3.168 10.512-3.168 6.144 0 10.68 2.328 13.608 6.984 2.928 4.656 4.392 11.16 4.392 19.512zm-25.128 0c0 5.856.504 10.272 1.512 13.248 1.008 2.928 2.88 4.392 5.616 4.392 2.688 0 4.56-1.464 5.616-4.392 1.056-2.928 1.584-7.344 1.584-13.248 0-5.856-.528-10.272-1.584-13.248-1.056-2.976-2.928-4.464-5.616-4.464-2.736 0-4.608 1.488-5.616 4.464-1.008 2.976-1.512 7.392-1.512 13.248zm29.251 3.888c0-2.976.216-5.904.648-8.784.432-2.88 1.176-5.592 2.232-8.136a22.099 22.099 0 014.536-6.84c1.968-2.016 4.44-3.576 7.416-4.68 3.024-1.152 6.672-1.728 10.944-1.728a50.3 50.3 0 013.528.144c1.344.048 2.472.168 3.384.36v8.712c-.912-.24-1.92-.408-3.024-.504a23.421 23.421 0 00-3.168-.216c-4.272 0-7.584.672-9.936 2.016-2.304 1.344-3.936 3.24-4.896 5.688-.96 2.4-1.512 5.184-1.656 8.352h.432c.96-1.68 2.328-3.096 4.104-4.248 1.824-1.152 4.176-1.728 7.056-1.728 4.512 0 8.088 1.416 10.728 4.248 2.64 2.832 3.96 6.84 3.96 12.024 0 5.568-1.584 9.936-4.752 13.104-3.12 3.168-7.368 4.752-12.744 4.752-3.504 0-6.672-.792-9.504-2.376-2.832-1.632-5.088-4.104-6.768-7.416-1.68-3.36-2.52-7.608-2.52-12.744zM87.22 87.008c2.112 0 3.84-.72 5.184-2.16 1.344-1.488 2.016-3.768 2.016-6.84 0-2.496-.576-4.464-1.728-5.904-1.152-1.44-2.904-2.16-5.256-2.16-1.584 0-2.976.36-4.176 1.08-1.2.672-2.136 1.56-2.808 2.664-.672 1.104-1.008 2.232-1.008 3.384 0 1.584.288 3.144.864 4.68.576 1.488 1.44 2.736 2.592 3.744 1.2 1.008 2.64 1.512 4.32 1.512z"/></symbol><symbol viewBox="0 0 26 24" id="svg--star" xmlns="http://www.w3.org/2000/svg"><path d="M13 0l2.919 8.983h9.445l-7.642 5.551 2.92 8.983L13 17.966l-7.641 5.551 2.918-8.983-7.64-5.551h9.444L13 0z"/></symbol></svg>