<svg width="35" height="31" viewBox="0 0 35 31" fill="none" xmlns="http://www.w3.org/2000/svg">
<g clip-path="url(#clip0)">
<path fill-rule="evenodd" clip-rule="evenodd" d="M20.7818 26.1655C20.7783 25.5352 21.3152 25.0152 21.8418 25.0152C22.1172 25.0152 22.217 25.0014 22.4854 25.1357C22.6093 25.1977 22.6885 25.27 22.7814 25.3596C23.4698 26.0484 23.0017 27.333 21.9589 27.3365C21.3084 27.3399 20.7852 26.8164 20.7818 26.1655ZM8.57721 7.92229C8.57721 7.61233 8.6254 7.51245 9.0212 7.35402L17.2126 4.03395C17.5258 3.8893 18.3071 3.54834 18.5859 3.54834C18.8199 3.54834 18.9507 3.71365 19.0196 3.87897L22.3822 12.1964C22.6541 12.868 25.9548 20.965 25.9548 21.0683C25.9548 21.6124 25.6484 21.5952 25.1012 21.8294L17.901 24.7465C17.8184 24.781 17.7599 24.8051 17.691 24.8361L16.5828 25.2838C16.0011 25.518 15.7189 25.6695 15.4539 25.0048L13.3372 19.7664C13.2752 19.6149 13.2098 19.4806 13.1548 19.3187L12.8003 18.4439C12.7383 18.2958 12.6764 18.1512 12.6282 18.0134L9.97458 11.449C9.93672 11.3629 9.92639 11.3216 9.89197 11.232L9.53403 10.3572C9.49961 10.2574 9.4824 10.2333 9.44798 10.1437L8.91451 8.81775C8.85255 8.66277 8.5841 8.0635 8.5841 7.91885L8.57721 7.92229ZM5.4624 6.67554C5.4624 7.24381 5.64482 7.53311 5.86509 8.08072C6.03374 8.50434 6.18862 8.88663 6.36071 9.31025C6.69456 10.1437 7.02153 10.9324 7.35538 11.7624L13.7846 27.6533C13.9292 28.0081 14.5728 29.7232 14.824 30.0573C15.2439 30.6187 15.8669 30.8735 16.5897 30.7943C16.8444 30.7668 17.0405 30.6738 17.2574 30.5877L20.9366 29.0964C22.5715 28.4351 24.1788 27.7773 25.8205 27.1195C26.1268 26.9955 28.7047 25.9657 28.8665 25.8727C29.4654 25.5214 29.8474 24.967 29.8474 24.1783C29.8474 23.703 29.4998 22.9901 29.3208 22.5458C29.221 22.2944 29.1212 22.0257 29.0042 21.7674L28.0611 19.4289C27.9544 19.1672 27.8546 18.9192 27.7479 18.6505L22.4028 5.44946C21.9795 4.39902 21.563 3.38646 21.1431 2.33603C20.8059 1.49567 20.6303 0.744869 19.8594 0.33847C19.1331 -0.0472653 18.4999 0.138714 17.8012 0.455568L17.3572 0.638103C14.2974 1.85386 11.2274 3.12472 8.17108 4.35769L7.06627 4.80886C6.9699 4.84675 6.91483 4.86397 6.83223 4.90185C6.68079 4.97073 6.53624 5.01551 6.39857 5.09472C5.93048 5.3668 5.47273 5.94196 5.47273 6.68243L5.4624 6.67554Z" fill="white"/>
<path fill-rule="evenodd" clip-rule="evenodd" d="M33.4923 22.0292C33.4923 22.1979 33.5784 22.5044 33.6162 22.7283C33.8709 24.2437 33.5198 25.7178 32.773 26.9783C32.0158 28.2491 30.6976 29.241 29.2761 29.6543C29.0731 29.7129 28.8906 29.7473 28.7461 29.8644C28.3055 30.2226 28.5671 31.0044 29.0972 31.0044C29.5515 31.0044 30.0264 30.815 30.4498 30.6324C31.5718 30.1537 32.181 29.6578 33.0036 28.8415C33.0896 28.7554 33.1172 28.7038 33.1929 28.6211C33.4063 28.3903 33.5198 28.2216 33.6919 27.9736C34.2495 27.1677 34.5317 26.472 34.8036 25.5111C34.9172 25.1082 34.9826 24.6157 35.0033 24.1059L34.9998 23.3551C34.9792 22.9108 34.9275 22.4803 34.8449 22.1222C34.8036 21.9431 34.7589 21.764 34.6625 21.6469C34.2839 21.1888 33.4958 21.4816 33.4958 22.0257L33.4923 22.0292Z" fill="white"/>
<path fill-rule="evenodd" clip-rule="evenodd" d="M0 7.09821V7.13265L0.00344178 7.9179C0.0172089 8.15554 0.0550685 8.37252 0.141113 8.49306C0.457757 8.92701 1.03598 8.8719 1.26657 8.43795C1.48685 8.02466 0.960256 6.68837 1.93428 4.74247C2.12358 4.36363 2.29911 4.07777 2.54692 3.7437C2.88765 3.28564 2.98402 3.23742 3.31443 2.8999C4.05786 2.14221 5.51373 1.45339 6.56691 1.33974C6.82505 1.31219 7.02811 1.29497 7.19676 1.17443C7.6614 0.840351 7.52029 0 6.78719 0H6.77342C5.94395 0.00688812 4.77031 0.427064 4.08195 0.77147C3.5175 1.05733 3.11481 1.33285 2.65705 1.72203C2.4299 1.9149 2.19241 2.11465 1.99967 2.34885C1.56945 2.87235 1.36983 3.04455 0.977465 3.72992L0.557568 4.59094C0.258133 5.35552 0 6.23031 0.00344178 7.09132L0 7.09821Z" fill="white"/>
<path fill-rule="evenodd" clip-rule="evenodd" d="M2.59521 7.52967C2.59521 7.99118 2.65373 8.62144 3.28013 8.62144C3.63119 8.62144 3.90997 8.36313 3.93407 8.04628C3.96848 7.55378 3.88244 7.47801 3.98569 6.8443C4.12681 5.96607 4.71535 5.06028 5.4278 4.54367C6.02323 4.10972 6.51196 3.95818 7.2485 3.84797C7.41715 3.82386 7.56858 3.75498 7.67184 3.64133C8.11583 3.15571 7.65807 2.53923 7.30701 2.54267C6.58079 2.54611 5.8236 2.79064 5.29701 3.0765C5.03544 3.21771 4.80828 3.3658 4.58456 3.538C4.46066 3.63099 4.37117 3.70676 4.26104 3.81697C4.13369 3.94096 4.11648 3.92029 3.98225 4.08217C3.55547 4.60222 3.31455 4.83297 3.01855 5.54934C2.77763 6.12794 2.73289 6.3518 2.63996 6.97173C2.61931 7.11294 2.59866 7.39535 2.59866 7.52967H2.59521Z" fill="white"/>
<path fill-rule="evenodd" clip-rule="evenodd" d="M30.9551 22.5561C30.9551 22.9384 31.0652 23.0314 31.0687 23.8407C31.0721 24.5399 30.7417 25.3527 30.3597 25.859C30.1566 26.131 30.1532 26.1138 29.9226 26.348C29.6231 26.6511 29.2514 26.906 28.8281 27.0851C28.2843 27.3158 27.7749 27.2435 27.7783 27.9736C27.7783 28.3008 28.1087 28.5729 28.4357 28.5729C28.7868 28.5729 29.6507 28.163 29.9673 27.9736C30.2117 27.8255 30.3769 27.6947 30.5903 27.5293L31.375 26.7028C31.4542 26.596 31.523 26.4892 31.5953 26.379C31.671 26.2654 31.7226 26.162 31.7983 26.0346C31.8809 25.8969 31.9085 25.8039 31.9773 25.6661C32.4041 24.7913 32.4764 23.6065 32.2836 22.6422C32.2286 22.3736 32.1666 22.2014 31.9704 22.0808C31.4507 21.7605 30.9551 22.1635 30.9551 22.5561Z" fill="white"/>
</g>
<defs>
<clipPath id="clip0">
<rect width="35" height="31" fill="white"/>
</clipPath>
</defs>
</svg>
