<svg width="305" height="71" viewBox="0 0 305 71" fill="none" xmlns="http://www.w3.org/2000/svg">
<g clip-path="url(#clip0)">
<path fill-rule="evenodd" clip-rule="evenodd" d="M194.249 14.8843C184.301 25.5838 179.938 31.8623 177.43 46.9681C176.487 52.6482 176.847 58.4572 175.932 64.133C174.651 58.4949 174.462 52.4627 174.838 46.7058C175.883 30.7277 180.761 22.4351 191.55 11.3357C192.918 10.0012 194.799 9.61868 195.707 10.5605C196.616 11.5024 196.01 13.1557 194.249 14.8843ZM160.626 18.9502C162.33 18.9502 163.711 20.6354 163.711 22.7147C163.711 24.7941 162.33 26.4792 160.626 26.4792C158.923 26.4792 157.541 24.7941 157.541 22.7147C157.541 20.6354 158.923 18.9502 160.626 18.9502ZM169.56 23.8029C169.799 24.626 170.415 25.6736 171.93 26.5531C174.931 28.2934 176.813 28.7933 176.813 28.7933L176.637 29.0715C177.172 28.5557 177.751 28.0558 178.386 27.5776C177.289 29.1019 177.005 29.3787 175.694 31.232C174.383 33.0852 171.285 37.5583 171.953 40.1317C172.619 42.7052 171.193 44.4961 170.454 45.3554L169.914 43.8035C169.914 43.8035 171.074 42.6631 171.216 41.1373C171.359 39.6115 170.581 38.2553 172.025 35.5138C172.241 35.1023 172.467 34.6893 172.702 34.2749C171.862 34.143 170.16 33.7721 167.666 32.7244C166.109 32.0709 165.183 31.6174 164.633 31.3102C164.179 32.923 164.276 35.6123 166.43 35.5978L166.442 35.5848C166.387 35.5775 166.416 35.5775 166.353 35.5862C167.485 34.9284 168.934 35.3109 169.592 36.4426C170.25 37.5742 169.867 39.0247 168.736 39.6825C160.463 43.2442 152.808 28.1978 173.668 17.3621C177.711 15.2625 179.195 14.7539 183.558 13.728C179.384 16.7941 173.714 19.7979 169.559 23.8029H169.56ZM173.578 43.8194L172.925 42.8602C172.925 42.8602 173.778 41.3112 173.791 39.7782C173.804 38.2466 172.705 37.0758 174.359 34.2126C176.013 31.3479 176.301 30.9856 178.468 28.5716C177.602 30.2974 176.941 31.5334 176.394 32.5998C175.846 33.6677 174.004 36.7686 174.65 38.6566C175.296 40.5447 174.243 42.9008 173.58 43.818L173.578 43.8194Z" stroke="#FEFEFE" stroke-width="2.49999" stroke-linecap="round" stroke-linejoin="round"/>
<path fill-rule="evenodd" clip-rule="evenodd" d="M194.249 14.8843C184.301 25.5838 179.938 31.8623 177.43 46.9681C176.487 52.6482 176.847 58.4572 175.932 64.133C174.651 58.4949 174.462 52.4627 174.838 46.7058C175.883 30.7277 180.761 22.4351 191.55 11.3357C192.918 10.0012 194.799 9.61868 195.707 10.5605C196.616 11.5024 196.01 13.1557 194.249 14.8843ZM160.626 18.9502C162.33 18.9502 163.711 20.6354 163.711 22.7147C163.711 24.7941 162.33 26.4792 160.626 26.4792C158.923 26.4792 157.541 24.7941 157.541 22.7147C157.541 20.6354 158.923 18.9502 160.626 18.9502ZM169.56 23.8029C169.799 24.626 170.415 25.6736 171.93 26.5531C174.931 28.2934 176.813 28.7933 176.813 28.7933L176.637 29.0715C177.172 28.5557 177.751 28.0558 178.386 27.5776C177.289 29.1019 177.005 29.3787 175.694 31.232C174.383 33.0852 171.285 37.5583 171.953 40.1317C172.619 42.7052 171.193 44.4961 170.454 45.3554L169.914 43.8035C169.914 43.8035 171.074 42.6631 171.216 41.1373C171.359 39.6115 170.581 38.2553 172.025 35.5138C172.241 35.1023 172.467 34.6893 172.702 34.2749C171.862 34.143 170.16 33.7721 167.666 32.7244C166.109 32.0709 165.183 31.6174 164.633 31.3102C164.179 32.923 164.276 35.6123 166.43 35.5978L166.442 35.5848C166.387 35.5775 166.416 35.5775 166.353 35.5862C167.485 34.9284 168.934 35.3109 169.592 36.4426C170.25 37.5742 169.867 39.0247 168.736 39.6825C160.463 43.2442 152.808 28.1978 173.668 17.3621C177.711 15.2625 179.195 14.7539 183.558 13.728C179.384 16.7941 173.714 19.7979 169.559 23.8029H169.56ZM173.578 43.8194L172.925 42.8602C172.925 42.8602 173.778 41.3112 173.791 39.7782C173.804 38.2466 172.705 37.0758 174.359 34.2126C176.013 31.3479 176.301 30.9856 178.468 28.5716C177.602 30.2974 176.941 31.5334 176.394 32.5998C175.846 33.6677 174.004 36.7686 174.65 38.6566C175.296 40.5447 174.243 42.9008 173.58 43.818L173.578 43.8194Z" fill="#0059A5"/>
<path d="M193.899 58.053C192.122 65.1647 181.836 70.9998 172.371 70.9998C163.186 70.9998 155.838 68.4249 150.341 63.2868C144.844 58.15 142.103 51.2861 142.103 42.724C142.103 31.4058 146.472 21.4512 155.198 12.876C163.938 4.28635 174.068 -0.00123787 185.578 -0.00123787C193.482 -0.00123787 200.117 2.50843 205.463 7.50314C210.818 12.5051 212.352 16.2 212.352 23.5914C212.352 26.5416 211.862 28.5383 211.027 30.1307C211.619 29.9525 212.235 29.8525 212.878 29.8525C214.651 29.8525 215.683 30.69 215.24 32.5607L214.748 34.7762C216.815 31.8217 219.966 29.8511 222.821 29.8511C225.43 29.8511 227.301 31.9188 226.169 37.0903L223.757 48.4171C223.462 49.8458 224.102 50.4356 225.087 50.4356C226.909 50.4356 229.025 49.2039 230.256 47.9737C230.798 48.22 231.093 48.6634 231.093 49.1561C231.093 49.501 230.946 49.8951 230.65 50.24C228.337 52.8496 225.039 55.1158 221.739 55.1158C219.278 55.1158 216.668 53.8842 217.9 48.123L219.966 38.3234C220.41 36.2557 219.72 35.4181 218.637 35.4181C217.307 35.4181 215.339 36.6498 214.255 37.9785L211.253 52.0135C210.76 54.2783 208.89 55.1158 207.117 55.1158C206.231 55.1158 205.394 54.8695 204.804 54.4754L208.841 35.5645C209.038 34.7762 208.792 34.3328 208.348 34.3328C208.102 34.3328 207.807 34.5299 207.364 34.924C207.278 34.8719 207.197 34.798 207.125 34.7096C207.401 34.4458 207.671 34.1894 207.931 33.9358C207.846 34.3285 207.64 34.6864 207.364 34.924C206.083 36.0079 204.164 38.3219 202.145 39.6028C202.194 39.7999 202.194 39.997 202.194 40.1448C202.194 47.6796 195.253 55.1158 189.346 55.1158C184.275 55.1158 182.11 51.0282 182.11 46.3987C182.11 38.9624 187.279 29.6555 194.713 29.6555C197.174 29.6555 199.144 30.3452 200.62 32.5607C200.521 33.6938 199.684 34.2357 198.945 33.9401C198.01 33.5953 196.977 33.3982 195.795 33.3982C191.315 33.3982 188.411 39.997 188.411 44.8236C188.411 49.1576 189.888 50.8311 191.61 50.8311C194.12 50.8311 197.271 47.1869 197.271 42.7544C197.271 42.114 197.172 41.4242 197.025 40.736C196.138 40.6867 195.302 40.4896 194.761 40.1448C193.726 37.4366 194.81 34.9733 197.616 34.9733C199.29 34.9733 200.717 35.8108 201.505 37.2381C202.915 36.3571 204.249 35.0197 205.653 33.717C207.65 31.3204 208.954 29.8308 209.317 26.1416C209.924 19.9631 207.049 14.7394 202.526 10.5489C198.004 6.35843 192.395 4.25593 185.715 4.25593C175.459 4.25593 166.636 7.97261 159.219 15.4205C151.816 22.8683 148.114 31.7232 148.114 41.9966C148.114 49.4445 150.354 55.4868 154.836 60.0801C159.33 64.6879 165.176 66.9846 172.371 66.9846C179.607 66.9846 186.774 64.0055 193.899 58.0472V58.053ZM247.485 47.0898C247.83 46.1538 247.239 45.0714 246.303 45.2192C245.368 47.9274 241.429 50.3414 238.722 50.3414C237 50.3414 235.72 49.3561 236.064 46.7957C236.114 46.2045 236.212 45.564 236.311 44.9728C242.661 35.2718 245.86 27.3921 245.86 23.5508C245.86 20.9904 244.235 19.5617 241.922 19.5617C235.473 19.5617 232.175 30.0018 229.91 47.8288C229.27 53.0003 231.878 55.1173 235.326 55.1173C239.855 55.1173 245.762 51.5716 247.485 47.0898ZM242.267 22.8118C242.808 22.8118 243.104 23.0582 243.104 23.8957C243.104 25.5707 241.282 32.5636 236.951 40.5896C238.625 30.1988 240.643 22.8118 242.268 22.8118H242.267ZM249.946 23.5015C249.651 25.4215 251.079 26.9487 252.998 26.9487C254.919 26.9487 256.543 25.4215 256.838 23.5015C257.035 21.5816 255.607 20.0544 253.688 20.0544C251.768 20.0544 250.143 21.5816 249.946 23.5015ZM245.466 49.2575C244.531 53.7393 247.387 55.1173 249.848 55.1173C253.146 55.1173 256.444 52.8525 258.759 50.2414C259.054 49.8965 259.202 49.5024 259.202 49.1576C259.202 48.6649 258.906 48.2215 258.365 47.9752C257.133 49.2068 255.017 50.437 253.195 50.437C251.915 50.437 251.128 49.5502 251.718 46.7928L254.72 32.5607C255.114 30.69 254.129 29.8525 252.358 29.8525C250.291 29.8525 248.518 30.8871 246.845 32.2158C245.86 33.0041 246.205 34.5299 246.845 34.924C247.288 34.5299 247.584 34.3328 247.83 34.3328C248.273 34.3328 248.47 34.7762 248.323 35.5645L245.468 49.2546L245.466 49.2575ZM259.053 34.9269C259.496 34.5328 259.791 34.3357 260.038 34.3357C260.481 34.3357 260.727 34.7791 260.53 35.5674L256.493 54.4783C257.084 54.8724 257.921 55.1187 258.806 55.1187C260.578 55.1187 262.449 54.2812 262.942 52.0164L265.944 37.9814C267.028 36.6512 268.996 35.421 270.326 35.421C271.409 35.421 272.099 36.2586 271.656 38.3263L269.589 48.1259C268.357 53.8871 270.968 55.1187 273.428 55.1187C276.727 55.1187 280.025 52.854 282.339 50.2429C282.635 49.898 282.782 49.5039 282.782 49.159C282.782 48.6663 282.487 48.2229 281.945 47.9766C280.714 49.2083 278.598 50.4385 276.776 50.4385C275.791 50.4385 275.151 49.8473 275.446 48.42L277.858 37.0932C278.99 31.9217 277.119 29.854 274.51 29.854C271.656 29.854 268.505 31.8232 266.437 34.7791L266.929 32.5636C267.373 30.6929 266.338 29.8554 264.567 29.8554C262.5 29.8554 260.727 30.89 259.054 32.2187C258.069 33.007 258.414 34.5328 259.054 34.9269H259.053ZM299.37 34.385C299.37 32.1695 298.237 29.6569 293.759 29.6569C285.636 29.6569 281.402 39.8999 281.402 46.3016C281.402 52.3584 285.143 55.1173 289.771 55.1173C294.547 55.1173 300.257 52.1628 303.653 47.1884C304.195 46.3016 303.702 45.2684 302.422 45.5133C300.306 48.32 295.776 50.8326 292.232 50.8326C289.968 50.8326 288.146 49.8473 287.654 47.1884C297.154 41.9183 299.37 38.5697 299.37 34.3835V34.385ZM294.102 33.4982C294.939 33.4982 295.53 34.2865 295.53 35.4181C295.53 38.619 292.281 42.0661 287.506 45.0699C287.654 41.6227 289.228 33.4968 294.102 33.4968V33.4982Z" fill="#FEFEFE"/>
<path d="M258.551 68.0134H256.662C255.711 68.0134 254.94 67.2411 254.94 66.2905C254.94 66.2152 254.945 66.1413 254.955 66.0688C254.577 66.008 254.226 65.8993 253.903 65.7457C253.612 65.6066 253.34 65.4211 253.088 65.1907C252.836 64.9604 252.627 64.6995 252.462 64.4097C252.301 64.1257 252.181 63.8214 252.104 63.4983C252.035 63.1998 251.998 62.8912 251.998 62.5695C251.998 62.2464 252.039 61.8885 252.12 61.4972L252.123 61.4842H252.12L252.565 59.4194C252.736 58.6094 253.451 58.0544 254.248 58.0559V58.053H256.141C256.494 58.053 256.822 58.1587 257.095 58.3413C257.372 58.1587 257.699 58.0559 258.044 58.0559V58.053H259.933C260.165 58.053 260.386 58.0993 260.589 58.1819C260.792 58.0993 261.011 58.0544 261.237 58.0544V58.0515H263.102C263.498 58.0515 263.863 58.1848 264.154 58.4094C264.226 58.3631 264.3 58.3225 264.374 58.2863C264.552 58.2008 264.749 58.1385 264.965 58.0993C265.147 58.0675 265.31 58.0515 265.454 58.0515H267.23C267.462 58.0515 267.685 58.0979 267.886 58.1805C268.089 58.0979 268.308 58.053 268.534 58.053V58.0501H270.423C270.874 58.0501 271.286 58.2239 271.594 58.5094C271.665 58.4601 271.738 58.4138 271.812 58.3717C271.967 58.2848 272.139 58.2124 272.327 58.1544C272.559 58.0834 272.778 58.0486 272.982 58.0486H274.852C275.533 58.0486 276.121 58.4442 276.402 59.018L276.519 58.8369C276.848 58.3312 277.398 58.0559 277.959 58.0544V58.0486H279.64C280.51 58.0486 281.227 58.692 281.345 59.528L281.425 59.8802L281.523 59.415C281.694 58.605 282.41 58.0501 283.207 58.0515V58.0486H285.095C285.505 58.0486 285.88 58.1921 286.177 58.4312C286.477 58.1906 286.855 58.0515 287.253 58.0515V58.0486H289.142C289.346 58.0486 289.543 58.0848 289.725 58.15C289.906 58.0863 290.1 58.0515 290.298 58.0515V58.0486H292.191C292.545 58.0486 292.872 58.1544 293.146 58.337C293.422 58.1544 293.75 58.0515 294.094 58.0515V58.0486H295.983C296.215 58.0486 296.437 58.095 296.639 58.1776C296.842 58.095 297.061 58.0501 297.287 58.0501V58.0472H299.152C299.548 58.0472 299.913 58.1805 300.204 58.4051C300.276 58.3587 300.35 58.3181 300.424 58.2819C300.602 58.1964 300.799 58.1341 301.015 58.095C301.198 58.0631 301.36 58.0472 301.505 58.0472H303.281C304.232 58.0472 305.003 58.8195 305.003 59.77C305.003 59.9294 304.981 60.0845 304.94 60.2323L303.582 66.6412C303.411 67.4512 302.695 68.0062 301.899 68.0047V68.0076H300.029C299.568 68.0076 299.15 67.8265 298.84 67.5323C298.738 67.6135 298.631 67.6845 298.518 67.7453C298.466 67.7729 298.412 67.7989 298.359 67.8207C298.215 67.8844 298.07 67.9308 297.924 67.9612C297.888 67.9685 297.852 67.9743 297.814 67.9786C297.69 67.9975 297.563 68.0076 297.435 68.0076H295.905C295.673 68.0076 295.452 67.9612 295.249 67.8786C295.046 67.9612 294.827 68.0062 294.601 68.0062V68.009H292.713C291.761 68.009 290.99 67.2367 290.99 66.2862C290.99 66.2108 290.995 66.1369 291.005 66.0645C290.627 66.0036 290.276 65.895 289.953 65.7414C289.856 65.695 289.762 65.6443 289.669 65.5878L289.445 66.6441C289.274 67.4541 288.559 68.009 287.762 68.0076V68.0105H285.873C285.463 68.0105 285.087 67.867 284.791 67.628C284.491 67.8685 284.113 68.0076 283.715 68.0076V68.0105H281.826C281.699 68.0105 281.573 67.996 281.452 67.9699C281.337 67.9931 281.221 68.0047 281.106 68.0062V68.0119H279.627C279.432 68.0119 279.231 67.9844 279.026 67.9294C278.832 67.8772 278.648 67.8047 278.479 67.7106C278.325 67.6265 278.179 67.5236 278.038 67.4019C277.905 67.286 277.781 67.1527 277.669 67.0034L277.621 66.9368H277.391C277.335 67.002 277.275 67.0657 277.213 67.1281C277.054 67.2845 276.877 67.4265 276.684 67.5512C276.632 67.5845 276.578 67.6149 276.525 67.6425C276.354 67.741 276.189 67.8178 276.028 67.8714C275.753 67.9656 275.481 68.0119 275.213 68.0119H273.734H273.689H272.035C271.8 68.0119 271.573 67.9801 271.352 67.9163C271.112 67.8482 270.885 67.7395 270.672 67.5903C270.57 67.5207 270.476 67.4439 270.389 67.3613C270.068 67.7627 269.574 68.0076 269.045 68.0076V68.0105H267.156C266.925 68.0105 266.703 67.9641 266.5 67.8815C266.297 67.9641 266.079 68.009 265.853 68.009V68.0119H263.983C263.522 68.0119 263.104 67.8308 262.794 67.5367C262.692 67.6178 262.585 67.6888 262.472 67.7497C262.42 67.7772 262.366 67.8033 262.313 67.825C262.169 67.8888 262.025 67.9351 261.878 67.9656C261.842 67.9728 261.806 67.9786 261.768 67.983C261.644 68.0018 261.518 68.0119 261.389 68.0119H259.859C259.627 68.0119 259.406 67.9656 259.203 67.883C259 67.9656 258.781 68.0105 258.555 68.0105V68.0134H258.551ZM201.658 68.0134H200.179C199.983 68.0134 199.782 67.9859 199.578 67.9308C199.384 67.8786 199.2 67.8062 199.03 67.712C198.877 67.628 198.73 67.5251 198.59 67.4034C198.457 67.2874 198.332 67.1541 198.221 67.0049L198.173 66.9382H197.943C197.886 67.0034 197.827 67.0672 197.764 67.1295C197.605 67.286 197.428 67.428 197.236 67.5526C197.184 67.5859 197.13 67.6164 197.076 67.6439C196.905 67.7424 196.74 67.8192 196.58 67.8728C196.304 67.967 196.032 68.0134 195.764 68.0134H194.285C193.334 68.0134 192.563 67.2411 192.563 66.2905C192.563 65.895 192.696 65.5298 192.921 65.24L197.072 58.8427C197.401 58.337 197.951 58.0617 198.512 58.0602V58.0544H200.193C201.062 58.0544 201.779 58.6978 201.898 59.5338L201.978 59.886L202.076 59.4208C202.247 58.6108 202.963 58.0559 203.759 58.0573V58.0544H205.648C206.058 58.0544 206.433 58.1979 206.73 58.437C207.03 58.1964 207.408 58.0573 207.806 58.0573V58.0544H209.695C210.551 58.0544 211.261 58.6789 211.396 59.4976L211.821 58.8427C212.15 58.337 212.701 58.0617 213.261 58.0602V58.0544H214.943C215.351 58.0544 215.728 58.1964 216.023 58.4355C216.323 58.1964 216.7 58.0573 217.097 58.0588V58.0544H222.263C222.754 58.0544 223.198 58.2602 223.51 58.5891L223.519 58.5847C224.346 58.1718 225.211 57.9646 226.116 57.9646C226.948 57.9646 227.698 58.1385 228.364 58.4833C228.715 58.6659 229.03 58.8861 229.309 59.147C229.565 59.3875 229.788 59.6614 229.976 59.9671L230.153 59.3266C230.362 58.563 231.054 58.0602 231.809 58.0602V58.053H236.651C236.882 58.053 237.105 58.0993 237.307 58.1819C237.51 58.0993 237.728 58.0544 237.954 58.0544V58.0515H239.82C240.215 58.0515 240.58 58.1848 240.871 58.4094C240.944 58.3631 241.018 58.3225 241.092 58.2863C241.27 58.2008 241.467 58.1385 241.683 58.0993C241.865 58.0675 242.027 58.0515 242.172 58.0515H243.948C244.498 58.0515 244.988 58.3094 245.304 58.7108C245.411 58.6456 245.521 58.5847 245.631 58.5297C245.685 58.5022 245.74 58.479 245.796 58.4587C246.06 58.3399 246.331 58.2457 246.607 58.1805C246.964 58.095 247.307 58.053 247.636 58.053H250.32C251.271 58.053 252.042 58.8253 252.042 59.7758C252.042 59.9352 252.02 60.0903 251.98 60.2381L250.621 66.647C250.45 67.457 249.734 68.0119 248.938 68.0105V68.0134H247.049C246.745 68.0134 246.458 67.9337 246.21 67.7946C246.055 67.867 245.89 67.9192 245.715 67.9554C245.683 67.9612 245.651 67.967 245.619 67.9714C245.464 67.9989 245.318 68.0119 245.182 68.0119H243.227C243.111 68.0119 242.998 68.0004 242.889 67.9786C242.783 67.9989 242.676 68.009 242.566 68.009V68.0119H240.696C240.236 68.0119 239.817 67.8308 239.507 67.5367C239.406 67.6178 239.298 67.6888 239.185 67.7497C239.133 67.7772 239.08 67.8033 239.026 67.825C238.883 67.8888 238.738 67.9351 238.592 67.9656C238.555 67.9728 238.519 67.9786 238.482 67.983C238.357 68.0018 238.231 68.0119 238.102 68.0119H236.572C236.341 68.0119 236.119 67.9656 235.916 67.883C235.714 67.9656 235.495 68.0105 235.269 68.0105V68.0134H233.38C232.872 68.0134 232.415 67.7931 232.1 67.4425C232.046 67.4773 231.992 67.5106 231.937 67.5425C231.638 67.7192 231.323 67.854 230.999 67.9453C230.66 68.0409 230.32 68.0887 229.981 68.0887C229.626 68.0887 229.258 68.0496 228.875 67.9714C228.705 67.9366 228.535 67.8931 228.367 67.8424L228.361 67.841V67.8424C228.205 67.7946 228.04 67.7323 227.867 67.6555C227.717 67.5888 227.581 67.5033 227.46 67.4019C227.404 67.4323 227.346 67.4613 227.289 67.4903C226.878 67.6946 226.457 67.8468 226.025 67.9482C225.585 68.0511 225.14 68.1032 224.689 68.1032C224.307 68.1032 223.923 68.0612 223.539 67.9757C223.144 67.8873 222.779 67.7569 222.446 67.5845C222.094 67.4019 221.778 67.1802 221.503 66.9194C221.313 66.7412 221.144 66.547 220.993 66.3355L220.926 66.6455C220.755 67.4555 220.04 68.0105 219.243 68.009V68.0119H217.355C217.187 68.0119 217.024 67.9873 216.871 67.9424C216.842 67.9511 216.813 67.9583 216.784 67.9641C216.658 67.9931 216.532 68.0062 216.407 68.0062V68.0119H214.928C214.733 68.0119 214.532 67.9844 214.327 67.9294C214.133 67.8772 213.949 67.8047 213.78 67.7106C213.626 67.6265 213.48 67.5236 213.339 67.4019C213.206 67.286 213.082 67.1527 212.97 67.0034L212.922 66.9368H212.692C212.636 67.002 212.576 67.0657 212.514 67.1281C212.355 67.2845 212.178 67.4265 211.985 67.5512C211.933 67.5845 211.879 67.6149 211.826 67.6425C211.655 67.741 211.49 67.8178 211.329 67.8714C211.054 67.9656 210.781 68.0119 210.514 68.0119H209.035C208.909 68.0119 208.786 67.9989 208.668 67.9728C208.554 67.9975 208.435 68.009 208.316 68.009V68.0119H206.427C206.018 68.0119 205.641 67.8685 205.345 67.6294C205.046 67.8699 204.668 68.009 204.269 68.009V68.0119H202.381C202.253 68.0119 202.127 67.9975 202.007 67.9714C201.891 67.9946 201.775 68.0062 201.661 68.0076V68.0134H201.658Z" fill="#FEFEFE"/>
<path d="M201.659 66.2905H200.18C200.069 66.2905 199.963 66.2616 199.86 66.2051C199.757 66.1485 199.669 66.0717 199.597 65.9761C199.524 65.8805 199.478 65.7776 199.458 65.6704L199.363 65.2154H197.039L196.75 65.6704C196.646 65.8385 196.498 65.9834 196.309 66.1065C196.119 66.2297 195.936 66.2905 195.765 66.2905H194.287L198.513 59.7773H200.195L201.661 66.2905H201.659ZM199.087 63.92L198.875 62.9129C198.861 62.8535 198.852 62.7535 198.852 62.6159C198.852 62.4898 198.859 62.3551 198.872 62.2116C198.885 62.0682 198.904 61.9406 198.927 61.8291H198.91C198.877 62.0029 198.82 62.1971 198.738 62.4087C198.655 62.6217 198.574 62.7898 198.496 62.9129L197.857 63.92H199.084H199.087Z" fill="#0059A5"/>
<path d="M209.694 59.7773L208.314 66.2905H206.425L206.933 63.8968H204.775L204.267 66.2905H202.378L203.758 59.7773H205.647L205.14 62.1652H207.298L207.805 59.7773H209.694Z" fill="#0059A5"/>
<path d="M216.408 66.2905H214.929C214.817 66.2905 214.712 66.2616 214.609 66.2051C214.506 66.1485 214.418 66.0717 214.345 65.9761C214.273 65.8805 214.226 65.7776 214.206 65.6704L214.112 65.2154H211.787L211.499 65.6704C211.395 65.8385 211.247 65.9834 211.057 66.1065C210.867 66.2297 210.685 66.2905 210.514 66.2905H209.035L213.262 59.7773H214.943L216.409 66.2905H216.408ZM213.835 63.92L213.624 62.9129C213.609 62.8535 213.601 62.7535 213.601 62.6159C213.601 62.4898 213.608 62.3551 213.621 62.2116C213.634 62.0682 213.653 61.9406 213.676 61.8291H213.659C213.625 62.0029 213.569 62.1971 213.486 62.4087C213.404 62.6217 213.323 62.7898 213.244 62.9129L212.606 63.92H213.832H213.835Z" fill="#0059A5"/>
<path d="M217.095 59.7773H222.262L221.897 61.5088H220.26L219.245 66.2905H217.356L218.372 61.5088H216.73L217.095 59.7773Z" fill="#0059A5"/>
<path d="M222.019 63.0375C222.153 62.3985 222.421 61.8247 222.822 61.3147C223.222 60.8046 223.71 60.4061 224.285 60.1178C224.86 59.8294 225.47 59.686 226.115 59.686C226.672 59.686 227.159 59.7947 227.576 60.0106C227.993 60.2265 228.315 60.5279 228.541 60.9162C228.767 61.3045 228.88 61.7523 228.88 62.2594C228.88 62.5144 228.851 62.7738 228.794 63.0375C228.66 63.6765 228.393 64.2489 227.993 64.7575C227.595 65.2661 227.105 65.6631 226.528 65.95C225.95 66.2369 225.335 66.3804 224.688 66.3804C224.133 66.3804 223.648 66.2731 223.231 66.0572C222.814 65.8413 222.494 65.5385 222.269 65.1502C222.045 64.7618 221.932 64.3155 221.932 63.8084C221.932 63.5592 221.961 63.3027 222.017 63.039L222.019 63.0375ZM223.907 63.0375C223.88 63.1723 223.867 63.2998 223.867 63.4201C223.867 63.6534 223.916 63.8591 224.013 64.0373C224.11 64.2156 224.251 64.3547 224.433 64.4546C224.616 64.5532 224.829 64.6024 225.072 64.6024C225.36 64.6024 225.632 64.5343 225.889 64.3996C226.145 64.2648 226.362 64.0779 226.542 63.8417C226.722 63.6055 226.843 63.336 226.906 63.0361C226.933 62.9013 226.946 62.7724 226.946 62.6492C226.946 62.4159 226.898 62.2087 226.801 62.029C226.704 61.8493 226.562 61.7102 226.38 61.6103C226.197 61.5117 225.984 61.4625 225.741 61.4625C225.456 61.4625 225.185 61.5306 224.927 61.6653C224.669 61.8001 224.45 61.987 224.271 62.2275C224.091 62.4681 223.97 62.7376 223.907 63.0375Z" fill="#0059A5"/>
<path d="M235.269 66.2905H233.38L234.392 61.5088H233.219L232.559 63.9156C232.424 64.4039 232.227 64.8328 231.968 65.2038C231.709 65.5747 231.407 65.8602 231.064 66.063C230.721 66.2659 230.36 66.3673 229.982 66.3673C229.724 66.3673 229.471 66.3413 229.22 66.2905C228.969 66.2398 228.749 66.1717 228.561 66.0877L228.965 65.1067C229.035 64.9357 229.116 64.814 229.208 64.7445C229.301 64.6735 229.424 64.6401 229.578 64.6401C229.65 64.6401 229.752 64.6503 229.883 64.672C229.931 64.6807 229.969 64.685 229.996 64.685C230.134 64.685 230.269 64.601 230.399 64.4329C230.529 64.2648 230.629 64.0518 230.702 63.7939L231.808 59.7773H236.651L235.27 66.2905H235.269Z" fill="#0059A5"/>
<path d="M243.948 59.7773L242.568 66.2905H240.698L241.794 61.9942C241.755 62.1203 241.707 62.242 241.651 62.3579C241.594 62.4753 241.542 62.5608 241.497 62.6144L238.611 66.0152C238.518 66.1268 238.438 66.1992 238.372 66.2355C238.307 66.2717 238.215 66.2891 238.102 66.2891H236.573L237.953 59.7758H239.819L238.902 63.2665C238.922 63.2158 238.976 63.123 239.06 62.9897C239.144 62.8564 239.213 62.7608 239.267 62.6999L241.555 60.0816C241.66 59.9584 241.755 59.8758 241.839 59.8352C241.923 59.7947 242.033 59.7758 242.172 59.7758H243.948V59.7773Z" fill="#0059A5"/>
<path d="M250.318 59.7773L248.938 66.2905H247.049L247.463 64.33H247.032L245.795 65.9544C245.689 66.0891 245.596 66.179 245.517 66.2239C245.435 66.2688 245.325 66.292 245.183 66.292H243.228L244.986 64.1547C245.107 64.0084 245.215 63.9084 245.314 63.8591C245.411 63.8098 245.544 63.7852 245.715 63.7852H245.76C245.46 63.6867 245.225 63.5157 245.053 63.2737C244.881 63.0317 244.794 62.7521 244.794 62.4304C244.794 62.3072 244.807 62.1812 244.834 62.0522C244.924 61.6262 245.108 61.2393 245.388 60.8916C245.666 60.5438 246.003 60.2714 246.399 60.0729C246.794 59.8744 247.207 59.7758 247.636 59.7758H250.32L250.318 59.7773ZM248.051 61.5538H247.355C247.201 61.5538 247.065 61.5987 246.945 61.69C246.825 61.7812 246.751 61.903 246.72 62.0522C246.712 62.0913 246.707 62.1319 246.707 62.1739C246.707 62.2884 246.746 62.3797 246.825 62.4478C246.903 62.5173 247.004 62.5507 247.13 62.5507H247.841L248.053 61.5523L248.051 61.5538Z" fill="#0059A5"/>
<path d="M258.551 66.2905H256.663L257.09 64.2663C256.86 64.3083 256.623 64.3416 256.384 64.3663C256.144 64.3923 255.928 64.4054 255.737 64.4054C255.308 64.4054 254.945 64.3329 254.643 64.1895C254.342 64.046 254.113 63.8359 253.957 63.5606C253.8 63.2868 253.724 62.9564 253.724 62.5695C253.724 62.3449 253.751 62.1015 253.805 61.8407L254.249 59.7758H256.143L255.67 61.8407C255.653 61.9218 255.643 61.9971 255.643 62.0652C255.643 62.2507 255.701 62.3956 255.817 62.497C255.933 62.5985 256.093 62.6506 256.303 62.6506C256.621 62.6506 257.004 62.6188 257.455 62.5565L258.044 59.7773H259.933L258.553 66.2905H258.551Z" fill="#0059A5"/>
<path d="M267.229 59.7773L265.849 66.2905H263.979L265.075 61.9942C265.036 62.1203 264.988 62.242 264.932 62.3579C264.875 62.4753 264.823 62.5608 264.778 62.6144L261.891 66.0152C261.799 66.1268 261.719 66.1992 261.652 66.2355C261.587 66.2717 261.496 66.2891 261.383 66.2891H259.854L261.234 59.7758H263.099L262.183 63.2665C262.203 63.2158 262.256 63.123 262.34 62.9897C262.425 62.8564 262.494 62.7608 262.548 62.6999L264.836 60.0816C264.94 59.9584 265.036 59.8758 265.12 59.8352C265.204 59.7947 265.314 59.7758 265.453 59.7758H267.229V59.7773Z" fill="#0059A5"/>
<path d="M267.154 66.2905L268.534 59.7773H270.423L269.043 66.2905H267.154ZM271.966 62.9347C272.083 62.9593 272.197 63.0187 272.31 63.1143C272.423 63.21 272.494 63.2984 272.528 63.3795L273.688 66.2891H272.034C271.88 66.2891 271.751 66.2514 271.645 66.1775C271.54 66.1036 271.463 66.0007 271.418 65.866L270.591 63.4288C270.555 63.3201 270.507 63.2332 270.446 63.1694C270.385 63.1056 270.326 63.0607 270.272 63.0332C270.219 63.0057 270.138 62.9723 270.029 62.9303C270.152 62.8912 270.252 62.8492 270.329 62.8042C270.406 62.7593 270.471 62.6985 270.529 62.6202L272.373 60.1192C272.442 60.0265 272.536 59.9454 272.656 59.8773C272.777 59.8092 272.885 59.7773 272.985 59.7773H274.855L272.725 62.4753C272.652 62.5652 272.541 62.6579 272.387 62.7535C272.233 62.8492 272.094 62.9071 271.968 62.9245V62.9332L271.966 62.9347Z" fill="#0059A5"/>
<path d="M281.105 66.2905H279.626C279.515 66.2905 279.409 66.2616 279.306 66.2051C279.203 66.1485 279.115 66.0717 279.042 65.9761C278.97 65.8805 278.924 65.7776 278.903 65.6704L278.809 65.2154H276.484L276.196 65.6704C276.092 65.8385 275.944 65.9834 275.754 66.1065C275.565 66.2297 275.382 66.2905 275.211 66.2905H273.732L277.959 59.7773H279.641L281.106 66.2905H281.105ZM278.533 63.92L278.321 62.9129C278.307 62.8535 278.298 62.7535 278.298 62.6159C278.298 62.4898 278.305 62.3551 278.318 62.2116C278.331 62.0682 278.35 61.9406 278.373 61.8291H278.356C278.323 62.0029 278.266 62.1971 278.184 62.4087C278.101 62.6217 278.02 62.7898 277.942 62.9129L277.303 63.92H278.53H278.533Z" fill="#0059A5"/>
<path d="M289.141 59.7773L287.76 66.2905H285.872L286.38 63.8968H284.222L283.713 66.2905H281.825L283.205 59.7773H285.094L284.585 62.1652H286.744L287.252 59.7773H289.141Z" fill="#0059A5"/>
<path d="M294.599 66.2905H292.71L293.137 64.2663C292.907 64.3083 292.671 64.3416 292.432 64.3663C292.191 64.3923 291.976 64.4054 291.784 64.4054C291.356 64.4054 290.992 64.3329 290.691 64.1895C290.389 64.046 290.161 63.8359 290.004 63.5606C289.848 63.2868 289.771 62.9564 289.771 62.5695C289.771 62.3449 289.799 62.1015 289.852 61.8407L290.297 59.7758H292.19L291.718 61.8407C291.7 61.9218 291.69 61.9971 291.69 62.0652C291.69 62.2507 291.748 62.3956 291.864 62.497C291.98 62.5985 292.141 62.6506 292.351 62.6506C292.668 62.6506 293.052 62.6188 293.502 62.5565L294.092 59.7773H295.98L294.6 66.2905H294.599Z" fill="#0059A5"/>
<path d="M303.278 59.7773L301.897 66.2905H300.028L301.124 61.9942C301.085 62.1203 301.037 62.242 300.981 62.3579C300.924 62.4753 300.872 62.5608 300.827 62.6144L297.94 66.0152C297.848 66.1268 297.768 66.1992 297.701 66.2355C297.636 66.2717 297.545 66.2891 297.432 66.2891H295.902L297.283 59.7758H299.148L298.231 63.2665C298.252 63.2158 298.305 63.123 298.389 62.9897C298.473 62.8564 298.543 62.7608 298.596 62.6999L300.885 60.0816C300.989 59.9584 301.085 59.8758 301.169 59.8352C301.253 59.7947 301.363 59.7758 301.502 59.7758H303.278V59.7773Z" fill="#0059A5"/>
<path d="M114.636 53.1771H118.383L122.961 31.5768H107.767L103.882 45.6828C103.877 45.7089 103.871 45.7336 103.864 45.7596C103.697 46.3566 103.497 46.9015 103.265 47.3941C103.013 47.9259 102.727 48.3997 102.404 48.8156C101.558 49.9052 100.583 50.4501 99.4937 50.4501C99.3822 50.4501 99.2533 50.4414 99.1055 50.424C99.0215 50.4138 98.9013 50.3935 98.7449 50.3646C98.3726 50.3066 98.0858 50.2776 97.8859 50.2776C97.7425 50.2776 97.6325 50.2892 97.5543 50.311L97.518 50.3211L97.505 50.3312C97.4775 50.3515 97.4398 50.3964 97.3949 50.4645C97.3066 50.595 97.2182 50.7717 97.1299 50.992H97.1284L97.1226 51.0065L96.2651 53.0858C96.4578 53.1336 96.6548 53.1785 96.8575 53.2205C97.6875 53.3901 98.5479 53.4741 99.4416 53.4741C100.017 53.4741 100.573 53.3988 101.106 53.2481C101.633 53.1003 102.147 52.8815 102.648 52.596C102.674 52.5786 102.701 52.5612 102.728 52.5453C103.28 52.2207 103.796 51.8281 104.278 51.3716C104.781 50.8934 105.245 50.3501 105.673 49.74C106.11 49.1141 106.497 48.4359 106.833 47.7042C107.172 46.9652 107.459 46.1683 107.695 45.3133H107.696L110.195 36.2136C110.338 35.4065 111.042 34.7922 111.891 34.7922H116.404V34.7951C116.522 34.7951 116.642 34.8067 116.761 34.8327C117.689 35.0298 118.283 35.9427 118.086 36.8729L114.636 53.18V53.1771Z" fill="#FEFEFE"/>
<path d="M65.9968 41.7923C66.2822 40.4679 66.7066 39.2029 67.2686 37.9974L67.2628 37.9945C67.832 36.7729 68.5446 35.6181 69.3992 34.5284C70.248 33.446 71.1895 32.4839 72.2222 31.6391C73.2448 30.8031 74.3732 30.0757 75.6102 29.4569C76.8486 28.8368 78.1145 28.3745 79.4065 28.0702C80.713 27.7616 82.0485 27.608 83.4144 27.608C85.8318 27.608 87.9683 28.0891 89.8208 29.0483C90.7652 29.5381 91.6053 30.1264 92.3411 30.8176C93.0798 31.5102 93.7113 32.3042 94.2328 33.1983C94.7499 34.085 95.1352 35.0356 95.3915 36.0513C95.645 37.0555 95.771 38.1147 95.771 39.2261C95.771 39.755 95.7392 40.31 95.6754 40.891C95.6131 41.4576 95.5219 42.0198 95.4017 42.5747C95.3973 42.5965 95.3915 42.6197 95.3857 42.6414C95.096 43.9846 94.6746 45.251 94.1212 46.4407C93.5549 47.6593 92.8452 48.8098 91.9935 49.8965C91.1548 50.9659 90.2119 51.9266 89.1647 52.7772C88.1232 53.6248 86.9891 54.3522 85.7637 54.9579C84.5282 55.5694 83.2579 56.0287 81.9543 56.333C80.642 56.6402 79.3008 56.7938 77.932 56.7938C75.5261 56.7938 73.3955 56.3127 71.5415 55.3535C70.5971 54.8637 69.757 54.274 69.0255 53.5828C68.2854 52.8858 67.6582 52.0903 67.1411 51.1977C66.6269 50.3095 66.2416 49.3575 65.9867 48.3447C65.7347 47.342 65.6087 46.2856 65.6087 45.1757C65.6087 44.6526 65.6405 44.1034 65.7043 43.5296C65.7651 42.9761 65.8563 42.4197 65.978 41.8604C65.9824 41.8372 65.9881 41.8155 65.9939 41.7923H65.9968ZM38.4677 29.7917L33.1809 54.7348C33.01 55.5447 32.2945 56.0997 31.4978 56.0983V56.1012H1.7222C0.770571 56.1012 0 55.3288 0 54.3783C0 54.2189 0.0217266 54.0639 0.062283 53.9161L5.3491 28.973C5.52001 28.163 6.23555 27.608 7.03219 27.6095V27.6066H14.2947C15.2463 27.6066 16.0169 28.3789 16.0169 29.3294C16.0169 29.4888 15.9952 29.6439 15.9546 29.7902L12.5261 45.9944H13.0041L16.6049 28.973C16.7759 28.163 17.4914 27.608 18.288 27.6095V27.6066H25.5505C26.5022 27.6066 27.2727 28.3789 27.2727 29.3294C27.2727 29.4888 27.251 29.6439 27.2104 29.7902L23.782 45.9944H24.26L27.8608 28.973C28.0317 28.163 28.7472 27.608 29.5439 27.6095V27.6066H36.8064C37.758 27.6066 38.5286 28.3789 38.5286 29.3294C38.5286 29.4888 38.5068 29.6439 38.4663 29.7917H38.4677ZM36.0068 53.9161L41.2936 28.973C41.4646 28.163 42.1801 27.608 42.9767 27.6095V27.6066H50.2392C51.1909 27.6066 51.9614 28.3789 51.9614 29.3294C51.9614 29.4888 51.9397 29.6439 51.8991 29.7917L50.1552 38.0176L56.3386 29.6279C56.3589 29.6018 56.3777 29.5758 56.3995 29.5497C56.5993 29.2918 56.8267 29.0527 57.0817 28.8353C57.1193 28.8034 57.1584 28.773 57.1975 28.744C57.4452 28.5426 57.7045 28.3658 57.9725 28.2151C58.2969 28.0326 58.6315 27.8891 58.9748 27.7848C59.363 27.666 59.7294 27.608 60.0756 27.608H67.2686C68.2202 27.608 68.9908 28.3803 68.9908 29.3309C68.9908 29.7917 68.8097 30.2104 68.5142 30.5205L60.4174 40.7736C60.4001 40.7954 60.3827 40.8171 60.3638 40.8388C60.1495 41.0982 59.9076 41.3402 59.6367 41.5648C59.5759 41.6155 59.5107 41.6662 59.4441 41.7184C59.6498 41.9864 59.8091 42.2618 59.9235 42.5414C59.9409 42.5849 59.9568 42.6298 59.9713 42.6747L64.3847 53.7465C64.7338 54.6275 64.3036 55.6259 63.423 55.9751C63.2158 56.0577 63.0015 56.0968 62.79 56.0968V56.1041H56.427C55.9751 56.1041 55.5463 56.0461 55.1422 55.9287C54.7178 55.807 54.3238 55.6186 53.9574 55.3665C53.5909 55.1129 53.2766 54.8101 53.0188 54.4565C52.774 54.1218 52.5785 53.7378 52.4336 53.3046L52.4293 53.306L49.247 43.931C49.2398 43.9078 49.2326 43.8846 49.2253 43.8615C49.1964 43.7803 49.1645 43.7108 49.1312 43.6514C49.1109 43.6151 49.0906 43.5861 49.0703 43.5659C49.0443 43.5398 49.0182 43.5137 48.9921 43.4891L46.608 54.7362C46.4371 55.5462 45.7215 56.1012 44.9249 56.0997V56.1026H37.6624C36.7108 56.1026 35.9402 55.3303 35.9402 54.3798C35.9402 54.2204 35.9619 54.0653 36.0025 53.9175L36.0068 53.9161ZM119.775 56.1012H112.512C111.56 56.1012 110.79 55.3288 110.79 54.3783C110.79 54.2189 110.812 54.0639 110.852 53.9175L114.281 37.7133H113.196L111.003 45.6959L111.001 45.7017H111.003C110.72 46.7261 110.37 47.6926 109.953 48.6055C109.533 49.5242 109.042 50.382 108.483 51.1804C107.912 51.9947 107.299 52.7134 106.643 53.3365C105.965 53.9798 105.242 54.529 104.475 54.9825C104.44 55.0028 104.405 55.0217 104.37 55.039C103.609 55.4781 102.828 55.8114 102.031 56.0345C101.178 56.2736 100.313 56.3953 99.4385 56.3953C98.3507 56.3953 97.2615 56.2837 96.1679 56.0606C95.6276 55.9505 95.1192 55.823 94.6485 55.6781C94.1792 55.5346 93.7229 55.3636 93.2826 55.168C92.4309 54.7913 92.0369 53.8045 92.3904 52.9467L92.3875 52.9452L93.9387 49.188H93.9373C94.114 48.7504 94.3153 48.3621 94.5384 48.0273C94.8035 47.6318 95.1004 47.3072 95.4292 47.058C95.4799 47.0203 95.5306 46.9855 95.5827 46.9536C95.8999 46.7392 96.2461 46.5783 96.6227 46.4711C97.0181 46.3595 97.4382 46.303 97.8829 46.303C98.2261 46.303 98.7085 46.3523 99.3284 46.4508L99.3747 46.4595V46.4581C99.4008 46.4624 99.4414 46.4697 99.495 46.4755C99.521 46.4653 99.5341 46.3653 99.6818 46.1741C99.86 45.9437 100.018 45.6857 100.153 45.3988C100.308 45.0728 100.439 44.712 100.549 44.3164C100.557 44.2918 100.564 44.2672 100.571 44.244L104.804 28.8759C105.012 28.1123 105.704 27.6095 106.459 27.6095V27.6022H125.082C126.033 27.6022 126.804 28.3745 126.804 29.3251C126.804 29.4845 126.782 29.6395 126.742 29.7873L121.455 54.7304C121.284 55.5404 120.568 56.0954 119.772 56.0939V56.0968L119.775 56.1012ZM152.053 56.1012H146.364C146.01 56.1012 145.655 56.0533 145.299 55.9592C144.953 55.8664 144.62 55.7331 144.303 55.5578C144.001 55.3926 143.717 55.1941 143.452 54.9622C143.194 54.7377 142.957 54.4826 142.743 54.1972C142.53 53.9117 142.353 53.6161 142.212 53.3104C142.063 52.9815 141.955 52.6496 141.889 52.3149L141.882 52.2773L141.818 51.9672H135.222L134.623 52.9134C134.611 52.9322 134.598 52.951 134.585 52.9699C134.323 53.377 134.01 53.761 133.646 54.1204C133.278 54.4841 132.861 54.8173 132.398 55.1158C131.915 55.4274 131.432 55.665 130.951 55.8288C130.418 56.0099 129.895 56.1012 129.384 56.1012H123.694C122.742 56.1012 121.972 55.3288 121.972 54.3783C121.972 53.9827 122.105 53.6176 122.33 53.3278L138.509 28.3948C138.838 27.8891 139.388 27.6138 139.949 27.6124V27.6066H146.416C147.285 27.6066 148.002 28.2499 148.121 29.086L153.728 54.0016C153.936 54.9275 153.354 55.8461 152.428 56.0548C152.302 56.0838 152.176 56.0968 152.052 56.0968V56.1026L152.053 56.1012ZM76.6139 42.7312C76.5676 42.9645 76.5357 43.1645 76.5169 43.3326L76.5125 43.3659C76.498 43.5151 76.4908 43.6818 76.4908 43.8644C76.4908 44.1802 76.5227 44.4715 76.585 44.7352C76.6458 44.9931 76.7312 45.2206 76.8399 45.4191C76.9456 45.6133 77.0745 45.7857 77.2266 45.9379C77.3758 46.0871 77.554 46.2175 77.7596 46.3291C77.9784 46.4479 78.2159 46.5363 78.4708 46.5957C78.7446 46.6595 79.0546 46.6914 79.4007 46.6914C80.2292 46.6914 81.0114 46.4986 81.7414 46.1147C82.1224 45.9132 82.4729 45.6771 82.7915 45.4046C83.1247 45.1192 83.4245 44.8033 83.6881 44.4541C83.9474 44.1136 84.169 43.7368 84.3559 43.3268C84.5384 42.924 84.676 42.5008 84.7701 42.0589H84.7658C84.8136 41.8227 84.8454 41.6228 84.8628 41.459C84.8802 41.2967 84.8889 41.1127 84.8889 40.9069C84.8889 40.5824 84.8585 40.2882 84.7976 40.026C84.7397 39.7753 84.6528 39.5449 84.5384 39.3348C84.4326 39.1392 84.3037 38.9667 84.156 38.8189C84.0053 38.6697 83.8257 38.5393 83.6186 38.4263C83.3999 38.3074 83.1623 38.219 82.9074 38.1596C82.6337 38.0959 82.3237 38.064 81.9775 38.064C81.1548 38.064 80.3755 38.2567 79.6412 38.6407C79.2689 38.8363 78.9169 39.074 78.5896 39.3551C78.2594 39.6376 77.961 39.9564 77.6959 40.3114C77.4337 40.6621 77.2078 41.0446 77.0224 41.459C76.8399 41.8633 76.7023 42.2878 76.6081 42.7312H76.6125H76.6139Z" fill="#FEFEFE"/>
<path d="M56.0446 43.76C55.9953 43.7339 55.9461 43.7137 55.8983 43.6977C55.0756 43.5688 54.4455 42.8559 54.4455 41.9951V41.9604H54.4484C54.447 41.117 55.0669 40.3795 55.9258 40.2563C56.0417 40.2404 56.1619 40.2056 56.2865 40.1549C56.4502 40.0883 56.6413 39.9854 56.8601 39.8477C57.0788 39.7101 57.2743 39.571 57.4438 39.4304C57.5698 39.3261 57.6596 39.2435 57.7146 39.1812L57.7262 39.1652L63.7213 31.5739H60.0756C60.0394 31.5739 60.0046 31.5797 59.9699 31.5899C59.8946 31.6131 59.7888 31.6623 59.6541 31.7377C59.5382 31.8029 59.4412 31.8637 59.3673 31.9202C59.3499 31.9362 59.3326 31.9521 59.3137 31.9681C59.2399 32.0304 59.179 32.0927 59.1283 32.155L59.1095 32.1811L52.0194 41.7981C51.9614 41.8778 51.8991 41.9575 51.8325 42.0343C51.9397 42.1777 52.0396 42.3328 52.1323 42.4979C52.2627 42.7312 52.3742 42.9834 52.4698 43.2529C52.4814 43.2819 52.493 43.3108 52.5031 43.3413L55.6854 52.7163L55.681 52.7178L55.6854 52.7293C55.7114 52.8076 55.7462 52.8771 55.7911 52.9365C55.8259 52.9829 55.865 53.022 55.9084 53.0525C55.9519 53.0829 56.0113 53.109 56.0837 53.1293C56.1764 53.1553 56.2908 53.1698 56.4255 53.1698H60.2552L56.7833 44.4599C56.7659 44.4237 56.7485 44.386 56.7326 44.3483C56.7297 44.3411 56.721 44.3396 56.6906 44.302C56.6095 44.202 56.5037 44.0976 56.3748 43.9875C56.2532 43.8832 56.1416 43.8049 56.0431 43.7542L56.0446 43.76Z" fill="#FEFEFE"/>
<path d="M44.3686 31.5754L39.79 53.1771H43.5372L48.1142 31.5754H44.3686Z" fill="#FEFEFE"/>
<path d="M30.106 53.1771L34.6845 31.5768H30.9389L27.3598 48.4954C27.2366 49.3271 26.5211 49.9646 25.6564 49.9646H21.6616V49.9617C21.5443 49.9617 21.424 49.9502 21.3053 49.9241C20.3768 49.727 19.783 48.8141 19.9799 47.8839L23.4301 31.5768H19.683L16.1039 48.4954C15.9808 49.3271 15.2653 49.9646 14.4005 49.9646H10.4057V49.9617C10.2884 49.9617 10.1682 49.9502 10.0494 49.9241C9.12096 49.727 8.5271 48.8141 8.72409 47.8839L12.1743 31.5768H8.42716L3.84863 53.1771H30.1089H30.106Z" fill="#FEFEFE"/>
<path d="M36.8063 29.8525L31.4978 54.8999H1.72217L7.03071 29.8525H14.2932L10.4027 48.2403H14.3975L18.288 29.8525H25.5505L21.66 48.2403H25.6533L29.5439 29.8525H36.8063Z" fill="#0059A5"/>
<path d="M37.667 54.8999L42.9755 29.8525H50.238L44.9295 54.8999H37.667ZM56.1694 41.9951C56.6184 42.0879 57.0631 42.3183 57.4947 42.6878C57.9264 43.0573 58.203 43.3963 58.3305 43.7079L62.7917 54.8999H56.4287C55.8406 54.8999 55.3452 54.755 54.9353 54.4739C54.5254 54.1914 54.2328 53.7929 54.059 53.2742L50.8768 43.8991C50.7377 43.4833 50.5538 43.15 50.3177 42.9022C50.0816 42.6544 49.8571 42.482 49.6485 42.3777C49.4414 42.2733 49.13 42.1415 48.7143 41.9792C49.1865 41.83 49.5732 41.6677 49.8672 41.4952C50.1613 41.3228 50.4147 41.0852 50.6334 40.7867L57.7236 31.1697C57.9886 30.8118 58.3522 30.5002 58.8128 30.2409C59.2734 29.9815 59.6949 29.854 60.0744 29.854H67.2674L59.0706 40.2332C58.794 40.5795 58.3623 40.9359 57.7743 41.3054C57.1862 41.6749 56.6503 41.8937 56.1665 41.9633V41.998L56.1694 41.9951Z" fill="#0059A5"/>
<path d="M67.6623 42.3936C68.1808 39.9376 69.2121 37.7293 70.7518 35.7688C72.2901 33.8083 74.1644 32.2752 76.3776 31.1682C78.5908 30.0612 80.9373 29.5077 83.4156 29.5077C85.5592 29.5077 87.4335 29.9235 89.0355 30.7538C90.6375 31.5841 91.8774 32.7433 92.7479 34.2372C93.6184 35.7311 94.05 37.454 94.05 39.4029C94.05 40.3839 93.9399 41.3808 93.7212 42.3951C93.2027 44.8511 92.1772 47.0536 90.6433 49.0083C89.1108 50.963 87.2308 52.4917 85.0059 53.5929C82.7811 54.6942 80.4231 55.2477 77.9332 55.2477C75.8011 55.2477 73.9326 54.8318 72.3306 54.0016C70.7286 53.1713 69.4946 52.0063 68.6299 50.5124C67.7651 49.0184 67.3335 47.3014 67.3335 45.3525C67.3335 44.3947 67.4436 43.4094 67.6623 42.3951V42.3936ZM74.9248 42.3936C74.8205 42.9124 74.7698 43.4021 74.7698 43.8644C74.7698 44.7642 74.9595 45.5539 75.3347 46.2393C75.7098 46.9261 76.2458 47.4622 76.9483 47.8419C77.6522 48.2229 78.4706 48.4128 79.4034 48.4128C80.51 48.4128 81.5586 48.1534 82.545 47.6347C83.5314 47.1159 84.3672 46.4001 85.0581 45.4901C85.7504 44.5787 86.2168 43.547 86.4587 42.3936C86.563 41.8749 86.6137 41.3793 86.6137 40.9055C86.6137 40.0057 86.4298 39.2102 86.0546 38.519C85.6795 37.8278 85.1378 37.2902 84.4353 36.9106C83.7328 36.5295 82.9144 36.3397 81.9801 36.3397C80.8851 36.3397 79.8422 36.5991 78.8501 37.1178C77.8593 37.6365 77.0178 38.3581 76.3254 39.2797C75.6331 40.2027 75.1667 41.2402 74.9248 42.3936Z" fill="#0059A5"/>
<path d="M119.774 54.8999H112.512L116.402 36.5121H111.889L109.347 45.7669C108.828 47.6462 108.074 49.2952 107.076 50.7196C106.079 52.1439 104.92 53.2452 103.6 54.0233C102.28 54.8014 100.891 55.1941 99.4381 55.1941C98.4474 55.1941 97.4726 55.0956 96.5108 54.8999C95.5476 54.7043 94.7003 54.445 93.9746 54.1218L95.5302 50.3515C95.7953 49.6937 96.1067 49.2271 96.4645 48.9561C96.8222 48.6852 97.2944 48.5519 97.8825 48.5519C98.1592 48.5519 98.5517 48.5924 99.0586 48.6736C99.2426 48.7084 99.3874 48.7258 99.4903 48.7258C100.02 48.7258 100.539 48.4026 101.04 47.7564C101.541 47.1101 101.928 46.2914 102.205 45.3003L106.459 29.8525H125.081L119.773 54.8999H119.774Z" fill="#0059A5"/>
<path d="M152.053 54.8999H146.363C145.938 54.8999 145.528 54.7898 145.129 54.571C144.731 54.3522 144.392 54.0581 144.115 53.6886C143.839 53.3191 143.661 52.9278 143.58 52.512L143.216 50.7645H134.276L133.17 52.512C132.765 53.1582 132.201 53.7176 131.469 54.1899C130.738 54.6623 130.039 54.8985 129.382 54.8985H123.692L139.947 29.8511H146.414L152.051 54.8985L152.053 54.8999ZM142.163 45.7843L141.35 41.9097C141.292 41.6793 141.263 41.2982 141.263 40.7678C141.263 40.2839 141.292 39.7651 141.345 39.2116C141.397 38.6581 141.466 38.1683 141.557 37.7409H141.488C141.36 38.4103 141.142 39.1537 140.825 39.9723C140.507 40.791 140.196 41.4373 139.896 41.9097L137.441 45.7843H142.161H142.163Z" fill="#0059A5"/>
<path fill-rule="evenodd" clip-rule="evenodd" d="M299.981 11.8922C300.902 11.8922 301.65 12.6398 301.65 13.5614C301.65 14.483 300.902 15.2306 299.981 15.2306C299.06 15.2306 298.312 14.483 298.312 13.5614C298.312 12.6398 299.06 11.8922 299.981 11.8922Z" fill="#FEFEFE"/>
<path fill-rule="evenodd" clip-rule="evenodd" d="M292.281 16.387C292.407 16.2884 293.827 15.164 294.586 14.5496C295.042 14.1816 295.264 14.1135 295.797 14.1946C296.627 14.3221 297.636 14.5815 298.039 14.7496C298.347 14.8771 299.694 15.7711 299.887 15.9885C300.038 16.1595 300.432 17.352 300.663 17.9316C300.807 18.2895 300.921 18.3431 301.333 18.3257C301.856 18.304 302.513 18.2591 302.738 18.275C303.11 18.3011 303.495 18.5706 303.507 19.085C303.52 19.5979 303.026 19.8877 302.691 19.8935C302.431 19.8979 301.169 19.9327 300.455 19.9486C299.903 19.9616 299.554 19.8066 299.316 19.3226C299.069 18.8198 299.054 18.7793 298.879 18.3793L297.882 19.8269C297.804 19.9399 297.775 20.0877 297.878 20.2413C297.981 20.3949 299.474 21.3875 299.744 21.6063C300.013 21.8251 300.29 22.4003 299.981 22.9712C299.741 23.4175 298.695 25.1983 298.064 26.2358C297.709 26.8183 297.377 27.5211 296.559 27.0777C295.937 26.7401 296.218 25.9054 296.379 25.5432C296.527 25.2128 297.006 24.2058 297.364 23.3813C297.535 22.9886 297.613 22.8133 297.326 22.6278C296.9 22.351 296.605 22.1265 296.081 21.7685C295.813 22.1279 295.461 22.6365 295.041 23.1871C294.487 23.9131 294.243 23.9594 293.379 23.9406C292.232 23.916 290.469 23.8261 290.162 23.745C289.726 23.6291 289.264 23.206 289.367 22.6278C289.47 22.0497 290.009 21.7541 290.6 21.7425C291.191 21.7294 293.052 21.7685 293.192 21.7555C293.333 21.7425 294.309 20.1631 294.361 20.0355C294.412 19.9066 294.102 19.4994 294.694 18.7387C295.288 17.978 296.331 16.5942 296.331 16.5942C296.527 16.2667 295.888 16.0088 295.606 16.0682C295.419 16.1073 293.557 17.339 293.333 17.4549C293.108 17.5708 292.584 17.6708 292.289 17.2984C291.993 16.926 292.126 16.5492 292.28 16.3884L292.281 16.387Z" fill="#FEFEFE"/>
<path fill-rule="evenodd" clip-rule="evenodd" d="M299.481 16.3247C299.231 16.087 298.118 15.3509 297.836 15.2336C297.262 14.9945 296.343 14.809 295.717 14.7134C295.316 14.6525 295.233 14.7003 294.914 14.9582C294.166 15.5639 293.411 16.174 292.65 16.7637C292.614 16.8304 292.659 16.9187 292.701 16.9709C292.779 17.0709 292.998 17.0376 293.095 16.9868C293.443 16.8028 293.84 16.5188 294.177 16.3058C294.439 16.1392 295.224 15.6103 295.501 15.5523C295.724 15.506 295.976 15.548 296.188 15.6262C296.699 15.8146 297.109 16.3189 296.781 16.8622L296.767 16.8854L296.751 16.9072C296.209 17.6273 295.663 18.3475 295.108 19.0589C294.6 19.711 295.036 19.7588 294.848 20.2283C294.741 20.4978 294.425 20.9542 294.261 21.2049C294.131 21.4063 293.996 21.6092 293.854 21.8019C293.699 22.012 293.524 22.2496 293.24 22.2757C293.076 22.2902 292.875 22.28 292.71 22.2786C292.409 22.2757 292.107 22.2714 291.805 22.2685C291.408 22.2641 291.007 22.2569 290.61 22.2656C290.313 22.2714 289.942 22.3829 289.883 22.7191C289.838 22.9741 290.072 23.1784 290.295 23.2378C290.479 23.2828 290.794 23.2943 290.986 23.3088C291.412 23.3393 291.839 23.361 292.267 23.3798C292.64 23.3958 293.015 23.4088 293.391 23.4161C294.096 23.4306 294.189 23.4407 294.625 22.8683C294.98 22.4032 295.311 21.9221 295.662 21.4541L295.962 21.0527L296.376 21.3353C296.789 21.6164 297.193 21.9149 297.611 22.1873C298.198 22.5684 298.081 23.0495 297.845 23.5899C297.527 24.3188 297.18 25.0302 296.858 25.7547C296.783 25.9257 296.564 26.4836 296.809 26.6155C296.874 26.6502 297.005 26.7154 297.083 26.6821C297.257 26.6053 297.517 26.1257 297.616 25.962C297.875 25.5374 298.13 25.1099 298.383 24.6825C298.766 24.0377 299.166 23.3798 299.52 22.722C299.636 22.5075 299.609 22.1714 299.413 22.0134C299.142 21.7946 298.806 21.5802 298.518 21.3788C298.276 21.2092 297.594 20.7615 297.44 20.5326C297.232 20.2196 297.236 19.8385 297.449 19.5298L298.98 17.3071L299.358 18.1692C299.496 18.4837 299.633 18.7836 299.786 19.0922C299.935 19.3965 300.114 19.4328 300.442 19.4255C301.188 19.4081 301.934 19.3849 302.679 19.3705C302.808 19.3676 302.984 19.2444 302.981 19.0995C302.976 18.9256 302.874 18.8126 302.7 18.7995C302.414 18.7807 302.035 18.8184 301.744 18.8329C301.613 18.8401 301.483 18.8459 301.353 18.8517C300.737 18.8778 300.41 18.717 300.175 18.1287C300.064 17.8505 299.964 17.5664 299.859 17.2839C299.772 17.0463 299.61 16.5464 299.481 16.3276V16.3247Z" fill="#FEFEFE"/>
<path fill-rule="evenodd" clip-rule="evenodd" d="M299.981 12.4109C300.617 12.4109 301.133 12.9267 301.133 13.5629C301.133 14.199 300.617 14.7134 299.981 14.7134C299.345 14.7134 298.83 14.1975 298.83 13.5629C298.83 12.9267 299.345 12.4109 299.981 12.4109Z" fill="#FEFEFE"/>
<path fill-rule="evenodd" clip-rule="evenodd" d="M285.388 24.2145C286.045 24.2145 286.579 24.7477 286.579 25.4055C286.579 26.0634 286.045 26.5966 285.388 26.5966C284.73 26.5966 284.197 26.0634 284.197 25.4055C284.197 24.7477 284.73 24.2145 285.388 24.2145Z" fill="#FEFEFE"/>
<path fill-rule="evenodd" clip-rule="evenodd" d="M285.388 23.7276C286.314 23.7276 287.066 24.4782 287.066 25.4055C287.066 26.3315 286.315 27.0835 285.388 27.0835C284.463 27.0835 283.711 26.3329 283.711 25.4055C283.711 24.4796 284.461 23.7276 285.388 23.7276Z" fill="#FEFEFE"/>
<path fill-rule="evenodd" clip-rule="evenodd" d="M284.906 12.1443C285.564 12.1443 286.097 12.6775 286.097 13.3354C286.097 13.9932 285.564 14.5264 284.906 14.5264C284.248 14.5264 283.715 13.9932 283.715 13.3354C283.715 12.6775 284.248 12.1443 284.906 12.1443Z" fill="#FEFEFE"/>
<path fill-rule="evenodd" clip-rule="evenodd" d="M284.906 11.6574C285.831 11.6574 286.583 12.408 286.583 13.3354C286.583 14.2613 285.833 15.0133 284.906 15.0133C283.98 15.0133 283.229 14.2627 283.229 13.3354C283.229 12.4095 283.979 11.6574 284.906 11.6574Z" fill="#FEFEFE"/>
<path fill-rule="evenodd" clip-rule="evenodd" d="M281.607 17.1419C281.179 18.0258 280.754 18.914 280.333 19.8023C279.95 20.6093 279.529 21.4541 279.194 22.2815C279.022 22.7075 279.543 22.9683 279.781 22.7075C280.003 22.4626 280.531 21.7816 280.969 21.1745C281.554 20.363 281.993 19.6052 282.253 19.7544C282.533 19.9138 282.191 20.6919 281.794 21.6845C281.45 22.5496 281.014 23.6276 280.921 23.8566C280.704 24.3927 280.476 24.9375 280.281 25.4809C279.955 26.3909 280.743 26.6546 281.112 26.0953C281.187 25.975 281.263 25.791 281.321 25.6606C281.461 25.3476 281.597 25.0317 281.732 24.7144C282.11 23.8276 282.478 22.935 282.844 22.0424C283.233 21.0977 283.618 20.1515 284 19.2038C284.184 18.7488 284.364 18.2823 284.557 17.8302C284.694 17.507 285.019 17.2766 285.375 17.41L285.417 17.4259L285.456 17.4491C285.77 17.6346 286.725 18.1997 287.065 18.2909C287.125 18.2866 287.193 18.2707 287.245 18.2431C287.645 17.9099 288.044 17.5737 288.441 17.2375C288.822 16.9158 289.236 16.584 289.599 16.245C289.67 16.1783 289.677 15.9812 289.617 15.9131C289.538 15.8262 289.36 15.8639 289.276 15.932C289.044 16.1218 288.816 16.3276 288.59 16.5246C288.338 16.7463 288.007 17.0622 287.73 17.2404C287.394 17.4563 286.886 17.481 286.586 17.2419C286.39 17.1086 286.173 16.9825 285.972 16.8579C285.57 16.6087 285.169 16.3609 284.767 16.1145C284.173 15.7494 283.553 15.3437 282.944 15.0061C282.762 14.9046 282.384 14.8713 282.178 14.893C281.357 14.98 280.53 15.0901 279.709 15.1915C279.181 15.2567 278.654 15.3234 278.128 15.3915C277.859 15.4263 277.552 15.4567 277.287 15.5103C277.151 15.5378 277.025 15.5929 277.035 15.7494C277.049 15.9653 277.139 16.0653 277.359 16.0551C278.521 15.9957 279.693 15.945 280.856 15.9102C281.61 15.8871 281.92 16.5391 281.603 17.1419H281.607Z" fill="#FEFEFE"/>
<path fill-rule="evenodd" clip-rule="evenodd" d="M277.185 14.9974C277.578 14.9177 281.822 14.4033 282.127 14.3714C282.432 14.3395 282.914 14.3873 283.202 14.5482C283.49 14.709 286.813 16.7521 286.893 16.8159C286.971 16.8782 287.226 16.9448 287.45 16.8014C287.675 16.6565 288.595 15.8175 288.947 15.5277C289.3 15.2393 289.777 15.3103 290.005 15.5596C290.234 15.8088 290.268 16.3406 289.959 16.6289C289.651 16.9173 287.55 18.6735 287.55 18.6735C287.55 18.6735 287.342 18.8184 287.038 18.8184C286.733 18.8184 285.192 17.9041 285.192 17.9041C285.192 17.9041 285.113 17.8722 285.04 18.0403C284.968 18.2083 281.894 25.8678 281.552 26.3836C280.866 27.4225 279.239 26.8415 279.79 25.3056C280.056 24.5593 281.182 21.8439 281.182 21.8439C281.182 21.8439 280.793 22.3728 280.171 23.0596C279.548 23.7464 278.317 23.0553 278.711 22.0844C279.103 21.1136 281.141 16.9042 281.141 16.9042C281.141 16.9042 281.406 16.4188 280.876 16.4348C280.347 16.4507 278.105 16.5434 277.391 16.5797C276.677 16.6159 276.532 16.0334 276.516 15.7842C276.5 15.5349 276.606 15.1176 277.185 14.9974Z" fill="#FEFEFE"/>
<path fill-rule="evenodd" clip-rule="evenodd" d="M267.782 13.6411C267.782 13.6411 268.408 13.8092 269.018 14.5641C269.627 15.319 269.772 15.4784 270.228 15.7436C270.686 16.0088 271.961 15.9682 272.434 15.0698C272.908 14.1714 272.756 13.2238 271.849 12.7268C270.943 12.2298 269.711 12.466 269.078 12.6529C268.444 12.8398 267.293 13.3933 267.782 13.6411Z" fill="#FEFEFE"/>
<path fill-rule="evenodd" clip-rule="evenodd" d="M268.559 13.4295C268.899 13.6541 269.212 13.9555 269.432 14.2279C269.778 14.6554 270.017 15.0046 270.495 15.2814C270.66 15.377 271.038 15.3567 271.218 15.319C271.522 15.2567 271.812 15.1046 271.962 14.8191C272.29 14.1975 272.249 13.5527 271.592 13.1919C270.922 12.8253 269.926 12.9557 269.229 13.1615C269.092 13.2021 268.806 13.3093 268.559 13.4266V13.4295Z" fill="#FEFEFE"/>
<path fill-rule="evenodd" clip-rule="evenodd" d="M263.699 16.8753C263.699 16.8753 266.941 14.4511 267.245 14.2758C267.549 14.099 268.143 14.099 268.576 14.709C269.009 15.319 270.646 17.2288 270.854 17.3578C271.063 17.4867 272.174 17.6795 272.876 17.8562C273.579 18.033 273.638 18.6749 273.55 19.0111C273.462 19.3487 273.097 19.6733 272.523 19.5574C272.103 19.4719 270.912 19.1922 270.162 19.014C269.626 18.8879 269.473 18.7966 269.103 18.3677C268.715 17.9185 268.252 17.3433 268.127 17.31C267.95 17.2622 266.658 18.3054 266.635 18.4822C266.618 18.6112 267.22 19.0314 267.707 19.3762C268.186 19.7153 268.289 19.9051 268.234 20.5354C268.131 21.7091 267.81 23.4262 267.711 23.9C267.592 24.4738 267.21 24.9013 266.505 24.7491C265.799 24.597 265.67 23.9015 265.728 23.5146C265.792 23.09 265.924 22.0496 266.021 21.4106C266.088 20.9701 265.985 20.889 265.56 20.5731C264.975 20.137 264.054 19.4733 263.553 19.0546C262.9 18.5083 263.024 17.4389 263.698 16.8782L263.699 16.8753Z" fill="#FEFEFE"/>
<path fill-rule="evenodd" clip-rule="evenodd" d="M264.033 17.294C263.66 17.6128 263.479 18.2938 263.898 18.643C264.527 19.169 265.223 19.6516 265.882 20.1428C266.409 20.5354 266.657 20.7876 266.551 21.4889C266.446 22.1888 266.365 22.893 266.259 23.5928C266.217 23.8681 266.325 24.1623 266.621 24.226C266.98 24.3028 267.122 24.1275 267.192 23.7899C267.41 22.7336 267.612 21.5628 267.706 20.4876C267.742 20.0747 267.735 20.0471 267.402 19.8109C267.316 19.7501 267.231 19.6892 267.145 19.6284C266.786 19.3719 266.039 18.9256 266.11 18.4083C266.16 18.0388 266.711 17.6186 266.987 17.3984C267.293 17.1549 267.856 16.6811 268.271 16.7941C268.636 16.8927 269.253 17.72 269.511 18.0185C269.8 18.3547 269.86 18.3938 270.288 18.4938C271.065 18.6778 271.853 18.8734 272.633 19.0328C272.775 19.0618 272.993 19.0473 273.038 18.8749C273.101 18.63 272.996 18.4344 272.749 18.3721C272.513 18.3127 272.274 18.2605 272.035 18.2098C271.68 18.133 270.871 17.991 270.578 17.8113C270.4 17.7012 270.149 17.4099 270.006 17.252C269.735 16.9535 269.471 16.6478 269.211 16.3406C268.853 15.9189 268.466 15.4683 268.146 15.0177C268.026 14.8496 267.739 14.609 267.518 14.7365C267.322 14.8525 267.102 15.0263 266.916 15.1611C266.541 15.4335 266.168 15.7088 265.794 15.9856C265.207 16.4203 264.619 16.855 264.035 17.294H264.033Z" fill="#FEFEFE"/>
<path fill-rule="evenodd" clip-rule="evenodd" d="M262.217 20.1732C263.91 20.1732 265.284 21.5468 265.284 23.2407C265.284 24.9346 263.91 26.3083 262.217 26.3083C260.524 26.3083 259.151 24.9346 259.151 23.2407C259.151 21.5468 260.524 20.1732 262.217 20.1732Z" fill="#FEFEFE"/>
<path fill-rule="evenodd" clip-rule="evenodd" d="M262.217 20.7716C263.58 20.7716 264.685 21.8772 264.685 23.2407C264.685 24.6042 263.58 25.7098 262.217 25.7098C260.854 25.7098 259.749 24.6042 259.749 23.2407C259.749 21.8772 260.854 20.7716 262.217 20.7716Z" fill="#FEFEFE"/>
<path fill-rule="evenodd" clip-rule="evenodd" d="M271.451 20.1732C273.144 20.1732 274.517 21.5468 274.517 23.2407C274.517 24.9346 273.144 26.3083 271.451 26.3083C269.758 26.3083 268.385 24.9346 268.385 23.2407C268.385 21.5468 269.758 20.1732 271.451 20.1732Z" fill="#FEFEFE"/>
<path fill-rule="evenodd" clip-rule="evenodd" d="M271.451 20.7716C272.814 20.7716 273.919 21.8772 273.919 23.2407C273.919 24.6042 272.814 25.7098 271.451 25.7098C270.088 25.7098 268.983 24.6042 268.983 23.2407C268.983 21.8772 270.088 20.7716 271.451 20.7716Z" fill="#FEFEFE"/>
</g>
<defs>
<clipPath id="clip0">
<rect width="305" height="71" fill="white"/>
</clipPath>
</defs>
</svg>
